<?xml version="1.0" encoding="UTF-8" standalone="no"?>
<!-- Created with Inkscape (http://www.inkscape.org/) -->

<svg
   version="1.1"
   id="svg1"
   width="512"
   height="512"
   viewBox="0 0 512 512"
   sodipodi:docname="Logo_oficial.svg"
   inkscape:version="1.2.1 (9c6d41e410, 2022-07-14)"
   inkscape:export-filename="Logo_oficial.png"
   inkscape:export-xdpi="96"
   inkscape:export-ydpi="96"
   xmlns:inkscape="http://www.inkscape.org/namespaces/inkscape"
   xmlns:sodipodi="http://sodipodi.sourceforge.net/DTD/sodipodi-0.dtd"
   xmlns:xlink="http://www.w3.org/1999/xlink"
   xmlns="http://www.w3.org/2000/svg"
   xmlns:svg="http://www.w3.org/2000/svg">
  <defs
     id="defs1">
    <linearGradient
       id="linearGradient5"
       inkscape:collect="always">
      <stop
         style="stop-color:#eeaa18;stop-opacity:1;"
         offset="0"
         id="stop6" />
      <stop
         style="stop-color:#5cd443;stop-opacity:0;"
         offset="1"
         id="stop7" />
    </linearGradient>
    <inkscape:path-effect
       effect="bspline"
       id="path-effect64"
       is_visible="true"
       lpeversion="1.3"
       weight="33.333333"
       steps="2"
       helper_size="0"
       apply_no_weight="true"
       apply_with_weight="true"
       only_selected="false"
       uniform="false" />
    <inkscape:path-effect
       effect="bspline"
       id="path-effect63"
       is_visible="true"
       lpeversion="1.3"
       weight="33.333333"
       steps="2"
       helper_size="0"
       apply_no_weight="true"
       apply_with_weight="true"
       only_selected="false"
       uniform="false" />
    <inkscape:path-effect
       effect="bspline"
       id="path-effect62"
       is_visible="true"
       lpeversion="1.3"
       weight="33.333333"
       steps="2"
       helper_size="0"
       apply_no_weight="true"
       apply_with_weight="true"
       only_selected="false"
       uniform="false" />
    <inkscape:path-effect
       effect="bspline"
       id="path-effect61"
       is_visible="true"
       lpeversion="1.3"
       weight="33.333333"
       steps="2"
       helper_size="0"
       apply_no_weight="true"
       apply_with_weight="true"
       only_selected="false"
       uniform="false" />
    <inkscape:path-effect
       effect="bspline"
       id="path-effect60"
       is_visible="true"
       lpeversion="1.3"
       weight="33.333333"
       steps="2"
       helper_size="0"
       apply_no_weight="true"
       apply_with_weight="true"
       only_selected="false"
       uniform="false" />
    <inkscape:path-effect
       effect="bspline"
       id="path-effect59"
       is_visible="true"
       lpeversion="1.3"
       weight="33.333333"
       steps="2"
       helper_size="0"
       apply_no_weight="true"
       apply_with_weight="true"
       only_selected="false"
       uniform="false" />
    <inkscape:path-effect
       effect="bspline"
       id="path-effect58"
       is_visible="true"
       lpeversion="1.3"
       weight="33.333333"
       steps="2"
       helper_size="0"
       apply_no_weight="true"
       apply_with_weight="true"
       only_selected="false"
       uniform="false" />
    <inkscape:path-effect
       effect="bspline"
       id="path-effect57"
       is_visible="true"
       lpeversion="1.3"
       weight="33.333333"
       steps="2"
       helper_size="0"
       apply_no_weight="true"
       apply_with_weight="true"
       only_selected="false"
       uniform="false" />
    <inkscape:path-effect
       effect="bspline"
       id="path-effect56"
       is_visible="true"
       lpeversion="1.3"
       weight="33.333333"
       steps="2"
       helper_size="0"
       apply_no_weight="true"
       apply_with_weight="true"
       only_selected="false"
       uniform="false" />
    <inkscape:path-effect
       effect="bspline"
       id="path-effect55"
       is_visible="true"
       lpeversion="1.3"
       weight="33.333333"
       steps="2"
       helper_size="0"
       apply_no_weight="true"
       apply_with_weight="true"
       only_selected="false"
       uniform="false" />
    <inkscape:path-effect
       effect="bspline"
       id="path-effect54"
       is_visible="true"
       lpeversion="1.3"
       weight="33.333333"
       steps="2"
       helper_size="0"
       apply_no_weight="true"
       apply_with_weight="true"
       only_selected="false"
       uniform="false" />
    <inkscape:path-effect
       effect="bspline"
       id="path-effect53"
       is_visible="true"
       lpeversion="1.3"
       weight="33.333333"
       steps="2"
       helper_size="0"
       apply_no_weight="true"
       apply_with_weight="true"
       only_selected="false"
       uniform="false" />
    <inkscape:path-effect
       effect="bspline"
       id="path-effect52"
       is_visible="true"
       lpeversion="1.3"
       weight="33.333333"
       steps="2"
       helper_size="0"
       apply_no_weight="true"
       apply_with_weight="true"
       only_selected="false"
       uniform="false" />
    <inkscape:path-effect
       effect="bspline"
       id="path-effect51"
       is_visible="true"
       lpeversion="1.3"
       weight="33.333333"
       steps="2"
       helper_size="0"
       apply_no_weight="true"
       apply_with_weight="true"
       only_selected="false"
       uniform="false" />
    <inkscape:path-effect
       effect="bspline"
       id="path-effect50"
       is_visible="true"
       lpeversion="1.3"
       weight="33.333333"
       steps="2"
       helper_size="0"
       apply_no_weight="true"
       apply_with_weight="true"
       only_selected="false"
       uniform="false" />
    <inkscape:path-effect
       effect="bspline"
       id="path-effect49"
       is_visible="true"
       lpeversion="1.3"
       weight="33.333333"
       steps="2"
       helper_size="0"
       apply_no_weight="true"
       apply_with_weight="true"
       only_selected="false"
       uniform="false" />
    <inkscape:path-effect
       effect="bspline"
       id="path-effect48"
       is_visible="true"
       lpeversion="1.3"
       weight="33.333333"
       steps="2"
       helper_size="0"
       apply_no_weight="true"
       apply_with_weight="true"
       only_selected="false"
       uniform="false" />
    <inkscape:path-effect
       effect="bspline"
       id="path-effect47"
       is_visible="true"
       lpeversion="1.3"
       weight="33.333333"
       steps="2"
       helper_size="0"
       apply_no_weight="true"
       apply_with_weight="true"
       only_selected="false"
       uniform="false" />
    <inkscape:path-effect
       effect="bspline"
       id="path-effect46"
       is_visible="true"
       lpeversion="1.3"
       weight="33.333333"
       steps="2"
       helper_size="0"
       apply_no_weight="true"
       apply_with_weight="true"
       only_selected="false"
       uniform="false" />
    <inkscape:path-effect
       effect="bspline"
       id="path-effect45"
       is_visible="true"
       lpeversion="1.3"
       weight="33.333333"
       steps="2"
       helper_size="0"
       apply_no_weight="true"
       apply_with_weight="true"
       only_selected="false"
       uniform="false" />
    <inkscape:path-effect
       effect="bspline"
       id="path-effect44"
       is_visible="true"
       lpeversion="1.3"
       weight="33.333333"
       steps="2"
       helper_size="0"
       apply_no_weight="true"
       apply_with_weight="true"
       only_selected="false"
       uniform="false" />
    <inkscape:path-effect
       effect="bspline"
       id="path-effect43"
       is_visible="true"
       lpeversion="1.3"
       weight="33.333333"
       steps="2"
       helper_size="0"
       apply_no_weight="true"
       apply_with_weight="true"
       only_selected="false"
       uniform="false" />
    <inkscape:path-effect
       effect="bspline"
       id="path-effect42"
       is_visible="true"
       lpeversion="1.3"
       weight="33.333333"
       steps="2"
       helper_size="0"
       apply_no_weight="true"
       apply_with_weight="true"
       only_selected="false"
       uniform="false" />
    <inkscape:path-effect
       effect="bspline"
       id="path-effect41"
       is_visible="true"
       lpeversion="1.3"
       weight="33.333333"
       steps="2"
       helper_size="0"
       apply_no_weight="true"
       apply_with_weight="true"
       only_selected="false"
       uniform="false" />
    <inkscape:path-effect
       effect="bspline"
       id="path-effect40"
       is_visible="true"
       lpeversion="1.3"
       weight="33.333333"
       steps="2"
       helper_size="0"
       apply_no_weight="true"
       apply_with_weight="true"
       only_selected="false"
       uniform="false" />
    <inkscape:path-effect
       effect="bspline"
       id="path-effect39"
       is_visible="true"
       lpeversion="1.3"
       weight="33.333333"
       steps="2"
       helper_size="0"
       apply_no_weight="true"
       apply_with_weight="true"
       only_selected="false"
       uniform="false" />
    <inkscape:path-effect
       effect="bspline"
       id="path-effect38"
       is_visible="true"
       lpeversion="1.3"
       weight="33.333333"
       steps="2"
       helper_size="0"
       apply_no_weight="true"
       apply_with_weight="true"
       only_selected="false"
       uniform="false" />
    <inkscape:path-effect
       effect="bspline"
       id="path-effect37"
       is_visible="true"
       lpeversion="1.3"
       weight="33.333333"
       steps="2"
       helper_size="0"
       apply_no_weight="true"
       apply_with_weight="true"
       only_selected="false"
       uniform="false" />
    <inkscape:path-effect
       effect="bspline"
       id="path-effect36"
       is_visible="true"
       lpeversion="1.3"
       weight="33.333333"
       steps="2"
       helper_size="0"
       apply_no_weight="true"
       apply_with_weight="true"
       only_selected="false"
       uniform="false" />
    <inkscape:path-effect
       effect="bspline"
       id="path-effect35"
       is_visible="true"
       lpeversion="1.3"
       weight="33.333333"
       steps="2"
       helper_size="0"
       apply_no_weight="true"
       apply_with_weight="true"
       only_selected="false"
       uniform="false" />
    <inkscape:path-effect
       effect="bspline"
       id="path-effect34"
       is_visible="true"
       lpeversion="1.3"
       weight="33.333333"
       steps="2"
       helper_size="0"
       apply_no_weight="true"
       apply_with_weight="true"
       only_selected="false"
       uniform="false" />
    <inkscape:path-effect
       effect="bspline"
       id="path-effect33"
       is_visible="true"
       lpeversion="1.3"
       weight="33.333333"
       steps="2"
       helper_size="0"
       apply_no_weight="true"
       apply_with_weight="true"
       only_selected="false"
       uniform="false" />
    <inkscape:path-effect
       effect="bspline"
       id="path-effect32"
       is_visible="true"
       lpeversion="1.3"
       weight="33.333333"
       steps="2"
       helper_size="0"
       apply_no_weight="true"
       apply_with_weight="true"
       only_selected="false"
       uniform="false" />
    <inkscape:path-effect
       effect="bspline"
       id="path-effect31"
       is_visible="true"
       lpeversion="1.3"
       weight="33.333333"
       steps="2"
       helper_size="0"
       apply_no_weight="true"
       apply_with_weight="true"
       only_selected="false"
       uniform="false" />
    <inkscape:path-effect
       effect="bspline"
       id="path-effect30"
       is_visible="true"
       lpeversion="1.3"
       weight="33.333333"
       steps="2"
       helper_size="0"
       apply_no_weight="true"
       apply_with_weight="true"
       only_selected="false"
       uniform="false" />
    <inkscape:path-effect
       effect="bspline"
       id="path-effect29"
       is_visible="true"
       lpeversion="1.3"
       weight="33.333333"
       steps="2"
       helper_size="0"
       apply_no_weight="true"
       apply_with_weight="true"
       only_selected="false"
       uniform="false" />
    <inkscape:path-effect
       effect="bspline"
       id="path-effect28"
       is_visible="true"
       lpeversion="1.3"
       weight="33.333333"
       steps="2"
       helper_size="0"
       apply_no_weight="true"
       apply_with_weight="true"
       only_selected="false"
       uniform="false" />
    <radialGradient
       inkscape:collect="always"
       xlink:href="#linearGradient5"
       id="radialGradient7"
       cx="272.23611"
       cy="266.9328"
       fx="272.23611"
       fy="266.9328"
       r="221.82442"
       gradientTransform="matrix(1,0,0,0.97609236,-4.9497473,4.9675206)"
       gradientUnits="userSpaceOnUse" />
  </defs>
  <sodipodi:namedview
     id="namedview1"
     pagecolor="#ffffff"
     bordercolor="#000000"
     borderopacity="0.25"
     inkscape:showpageshadow="2"
     inkscape:pageopacity="0.0"
     inkscape:pagecheckerboard="0"
     inkscape:deskcolor="#d1d1d1"
     showgrid="false"
     showguides="true"
     inkscape:zoom="1.4142136"
     inkscape:cx="-50.911687"
     inkscape:cy="384.66608"
     inkscape:window-width="1920"
     inkscape:window-height="1017"
     inkscape:window-x="-8"
     inkscape:window-y="-8"
     inkscape:window-maximized="1"
     inkscape:current-layer="layer1" />
  <g
     inkscape:groupmode="layer"
     id="layer4"
     inkscape:label="Logo 1"
     style="display:inline" />
  <g
     inkscape:groupmode="layer"
     id="layer1"
     inkscape:label="Logo"
     style="display:inline">
    <ellipse
       style="font-variation-settings:normal;display:inline;opacity:1;vector-effect:none;fill:#84d9ec;fill-opacity:1;fill-rule:evenodd;stroke:url(#radialGradient7);stroke-width:1;stroke-linecap:butt;stroke-linejoin:miter;stroke-miterlimit:4;stroke-dasharray:none;stroke-dashoffset:0;stroke-opacity:1;-inkscape-stroke:none;paint-order:markers fill stroke;stop-color:#000000;stop-opacity:1"
       id="path2"
       cx="267.28638"
       cy="265.51859"
       rx="221.32442"
       ry="216.02112" />
    <path
       style="fill:#ffffff"
       d="m 285.692,123.63337 63.02979,42.01987"
       id="path18" />
    <path
       style="display:inline;fill:#e6e6e6"
       d="m 175.01467,138.01517 c 0,0 -0.75035,-0.25011 14.75698,-9.87967 15.50733,-9.62955 31.38984,-10.75508 31.38984,-10.75508 l 26.13736,-0.12506 2.00094,0.25012 4.87731,1.12553 39.39362,8.37896 28.88866,6.50308 34.39126,8.00378 37.76785,8.12884 1.87589,0.25012 3.87683,0.25012 6.7532,0.37518 17.63333,-0.12506 1.62577,-0.37518 1.87589,-0.37518 6.25295,-2.00094 c 0,0 0,-0.50024 1.00048,-0.37518 1.00047,0.12506 2.00094,1.00047 2.00094,1.00047 0,0 1.00047,0.75036 0.87542,3.12648 -0.12506,2.37612 -0.37518,8.00378 -0.37518,8.00378 l -0.25012,2.37613 -0.87541,2.7513 -5.00237,7.50355 c 0,0 -2.37612,5.37754 -12.00567,7.6286 -9.62956,2.25107 -9.75462,4.37707 -30.13925,6.50308 -20.38464,2.126 -35.39173,-3.3766 -35.39173,-3.3766 0,0 -17.1331,-2.62624 -25.51207,-6.87825 -8.37896,-4.25201 -42.01986,-15.75745 -40.51915,-15.88251 1.50071,-0.12506 -28.26336,-9.12932 -28.26336,-9.12932 l -7.87873,-1.62577 -9.50449,-2.00094 -6.1279,-0.87542 -18.75887,-0.50023 c 0,0 -13.63144,3.00142 -6.12789,1.37565 7.50354,-1.62577 -9.75462,2.126 -9.75462,2.126 l -9.62955,4.62719 -3.37659,2.37612 -3.3766,3.50166 -2.37612,2.7513 -3.87684,5.12742 -3.87683,6.00284 -0.62529,2.37613 c 0,0 -3.12648,9.37943 -2.37613,12.88109 0.75036,3.50165 -10.12979,0.50023 -10.12979,0.50023 z"
       id="path276" />
    <path
       style="fill:#e6e6e6"
       d="m 172.13831,189.0393 -0.87541,7.25342 0.6253,6.1279 1.25059,6.00284 2.7513,5.37754 2.7513,3.62672 3.62671,2.7513 6.25296,3.75177 7.25343,2.87636 2.7513,0.6253 h 5.12742 l 9.75461,-1.25059 4.37707,-1.37566 3.75178,-2.25106 11.13026,-9.00426 2.25106,-2.126 1.75083,-2.12601 2.7513,-4.37707 3.00142,-5.87777 1.00047,-2.25107 1.00048,-7.87872 v -1.87589 l -2.00095,-6.00284 c 0,0 -2.37612,-2.87636 -6.25296,-3.12648 -3.87683,-0.25011 -8.12884,2.00095 -8.12884,2.00095 l -3.25154,2.87636 -3.50165,5.12742 c 0,0 -1.00047,1.75083 -3.00142,0.50024 -2.00095,-1.25059 5.00236,-14.75698 5.00236,-14.75698 l 2.00095,-2.37612 4.37707,-3.3766 4.75225,-2.62624 2.50118,-1.00047 6.1279,-0.50024 5.75272,1.25059 3.12647,2.25107 3.75178,4.8773 1.12553,1.50071 0.6253,6.1279 0.37517,6.87825 -0.12506,2.62624 -1.37565,5.62766 -6.75319,16.75793 -3.62671,6.00283 -2.25107,3.12648 -4.50213,4.37707 -5.25248,4.12695 -6.87825,4.87731 -9.37944,4.62719 c 0,0 -5.37754,3.62671 -16.63286,4.37707 -11.25532,0.75035 -20.75981,-2.37613 -20.75981,-2.37613 0,0 -3.3766,-0.12506 -10.25485,-4.00189 -6.87826,-3.87683 -13.88157,-20.00946 -13.13121,-20.00946 0.75035,0 15.25721,-27.76312 15.25721,-27.76312 z"
       id="path277" />
    <path
       style="display:inline;fill:#e6e6e6"
       d="m 174.88961,137.89011 -6.00283,8.00379 -5.87779,10.37991 -4.00189,10.50496 -4.00189,10.63003 -1.62577,6.62813 -1.12553,8.50402 0.50024,7.75367 1.12553,7.50354 2.7513,9.5045 14.50686,-26.26242 -3.3766,-16.88298 z"
       id="path278" />
    <path
       style="display:inline;fill:#e6e6e6"
       d="m 171.38796,189.0393 -15.88251,24.51158 2.50118,5.87778 13.75651,-27.63806 z"
       id="path279" />
    <path
       style="fill:#e6e6e6"
       d="m 328.04343,174.75404 -40.67787,95.15085 -31.12741,3.18348 37.67124,-88.43015 c 0,0 3.71407,-9.01988 13.26452,-17.15545 9.55046,-8.13557 20.86952,7.25127 20.86952,7.25127 z"
       id="path280" />
    <path
       style="fill:#e6e6e6"
       d="m 287.45399,269.37431 c 0,0 5.83639,-0.17686 10.08104,-2.38762 4.24465,-2.21075 11.31906,-7.78185 11.31906,-7.78185 l 10.78848,-9.55046 c 0,0 4.4215,-5.39424 4.95209,-5.83639 0.53058,-0.44215 2.56447,-1.68017 2.56447,-1.68017 0,0 4.86366,-2.38761 4.33308,3.53721 -0.53058,5.92482 -6.98599,12.55708 -6.98599,12.55708 l -5.92482,8.84301 -7.07441,12.55709 -5.04052,8.93144 -3.71406,9.10831 -3.18349,9.81574 -1.68017,6.36697 -1.06116,7.78186 -0.0884,9.46202 c 0,0 -0.35372,4.6868 -3.27192,0.70745 -2.91819,-3.97936 0.53058,-26.0869 0.53058,-26.0869 l 2.82977,-15.12156 0.53058,-4.86365 c 0,0 0.35372,-2.65291 -2.12233,-1.32646 -2.47604,1.32646 -12.99923,2.12233 -12.99923,2.12233 0,0 -1.06116,0.17686 -0.97273,1.32645 0.0884,1.14959 -19.98522,48.72501 -19.98522,48.72501 l -14.23725,29.00509 c 0,0 -2.29918,8.22401 -10.87691,14.76784 -8.57772,6.54383 -2.21075,-43.15391 -2.21075,-43.15391 l 22.54969,-62.52012 z"
       id="path281" />
    <path
       style="fill:#e6e6e6"
       d="m 282.56552,269.45231 -26.13736,2.7513 h -17.38322 c 0,0 -2.00094,-0.12506 -2.62624,0.50024 -0.62529,0.62529 17.50828,10.50497 17.50828,10.50497 z"
       id="path282" />
    <path
       style="fill:#e6e6e6"
       d="m 236.29364,272.70385 -8.37896,2.87636 -6.62813,2.50118 -2.50118,1.25059 c 0,0 -4.25201,3.3766 1.00047,4.12695 5.25248,0.75036 16.5078,-10.75508 16.5078,-10.75508 z"
       id="path283" />
    <path
       style="fill:#e6e6e6"
       d="m 222.6622,282.45846 8.8792,-0.6253 8.37896,0.50024 9.25437,1.62577 c 0,0 1.75083,-0.37518 1.12554,1.50071 -0.6253,1.87589 -12.2558,29.51395 -12.2558,29.51395 l -15.13215,32.01514 -9.00426,13.13121 c 0,0 -8.50402,14.75697 -8.50402,15.00709 0,0.25012 -9.87967,13.00615 -9.87967,13.00615 l -3.62672,2.62624 -7.75366,3.3766 -5.5026,2.126 -3.75178,0.87542 -22.01041,0.37517 c 0,0 -11.75555,-1.50071 -17.75839,-9.62955 -6.00284,-8.12884 -4.25201,11.38038 -4.25201,11.38038 l -0.25012,5.00237 9.12932,5.00236 10.00473,4.62719 8.00378,2.50118 21.00994,0.12506 8.2539,-2.37612 10.88014,-3.87684 11.75556,-5.25248 6.00284,-3.87683 5.87778,-4.87731 7.25343,-6.75319 7.6286,-9.37943 20.13452,-102.29837 -18.63381,-5.00236 -1.25059,-0.37518 -2.00095,0.50024 z"
       id="path284" />
    <path
       style="fill:#e6e6e6"
       d="m 130.57889,404.05343 -8.75458,-7.87028 -2.82977,-3.18349 -3.97935,-7.07441 -3.8025,-11.67278 -2.56447,-12.0265 -1.23803,-9.72732 -0.53058,-11.31906 0.61901,-8.48929 1.32646,-6.89755 1.85703,-6.45541 5.04052,-12.99923 2.21075,-5.30581 4.06779,-5.92482 5.12895,-5.74796 4.59837,-4.24465 2.6529,-2.6529 4.50994,-2.82976 4.15621,-2.12233 3.8025,-1.32645 4.50994,-0.79587 3.27192,-0.44215 h 11.23062 l 3.18349,0.53058 3.36035,1.23802 4.06779,2.12232 3.80249,2.47605 3.36035,2.6529 3.8025,4.06779 1.32645,1.59174 1.85703,3.44878 1.76861,5.39424 1.32645,5.92482 0.26529,8.224 c 0,0 -0.0884,6.89755 -4.50994,0.61901 -4.42151,-6.27854 3.89093,-6.4554 -2.91819,-20.86951 -6.80913,-14.41412 -43.50765,-9.99261 -43.50765,-9.99261 l 2.74134,10.2579 -4.15622,2.03389 -3.80249,2.65291 -5.04052,6.36697 -4.77523,8.04714 -2.9182,7.51656 -2.6529,7.51657 c 0,0 -1.85703,8.93144 -2.03389,9.28516 -0.17686,0.35372 -0.70745,8.22401 -0.70745,8.22401 l 0.35372,19.27777 c 0,0 -0.26529,0.97273 0.35373,2.65291 0.61901,1.68017 4.86365,11.23063 4.86365,11.23063 l 0.53058,0.79587 1.06117,1.14959 1.32645,1.50331 2.38761,2.9182 3.27192,3.18348 z"
       id="path285" />
    <path
       style="fill:#e6e6e6"
       d="m 145.16987,292.76408 2.43183,-1.01694 1.63596,-0.70744 2.21075,-0.44216 2.43183,-0.39793 2.78555,-0.0884 3.44877,-0.0442 3.66986,-0.0442 1.7686,0.44215 2.21075,0.75166 2.96242,1.45909 5.30581,2.87398 5.79217,3.53721 1.14959,0.97273 1.90125,2.07811 1.06116,2.16654 0.84009,2.56447 0.8843,2.29919 0.92852,2.16654 1.94546,-11.45171 -4.28886,-10.52319 -7.25127,-5.35002 -7.20706,-2.47605 -14.28147,-1.41488 -14.59098,0.70744 -2.3434,2.07811 z"
       id="path286" />
    <path
       style="fill:#e6e6e6"
       d="m 436.72409,164.49614 c 0,0 -0.53058,6.80913 -7.87028,11.67279 -7.33971,4.86365 -22.81498,7.42813 -22.81498,7.42813 z"
       id="path287" />
    <path
       style="fill:#e6e6e6"
       d="m 344.90749,180.78539 16.00757,3.81431 -5.87778,-7.31596 z"
       id="path288" />
    <path
       style="fill:#e6e6e6"
       d="m 416.65045,150.8779 c 0,0 13.52981,-0.53058 19.10091,-4.33308 5.5711,-3.80249 1.14959,14.0604 -0.8843,21.75382 -2.0339,7.69342 -18.21661,-17.42074 -18.21661,-17.42074 z"
       id="path289" />
    <path
       style="fill:#e6e6e6"
       d="m 434.77863,169.00608 c 0,0 2.74133,-2.91819 2.91819,-7.60499 0.17686,-4.6868 -2.91819,7.60499 -2.91819,7.60499 z"
       id="path290" />
    <path
       style="fill:#e6e6e6"
       d="m 288.51515,160.07464 -10.2579,-3.53721 8.13558,-1.50331 z"
       id="path291" />
    <path
       style="fill:#e6e6e6"
       d="m 220.47366,117.50548 c 0,0 14.19422,-2.50118 27.63807,0 13.44386,2.50118 -27.63807,0 -27.63807,0 z"
       id="path292" />
    <path
       style="fill:#e6e6e6"
       d="m 239.10747,146.58172 c 0,0 -4.18948,-0.25011 -4.75224,-0.31264 -0.56277,-0.0625 2.62624,-2.06348 2.62624,-2.06348 z"
       id="path293" />
    <path
       style="fill:#e6e6e6"
       d="m 214.67405,146.4723 c 0,0 4.76788,-0.89105 5.67456,-0.59403 0.90667,0.29701 -4.04879,-1.65704 -4.04879,-1.65704 z"
       id="path294" />
    <path
       style="fill:#e6e6e6"
       d="m 225.0223,145.92581 c 0,0 -42.62333,1.14959 -51.64321,31.74643 -9.01988,30.59683 3.18349,-36.87538 3.18349,-36.87538 z"
       id="path295" />
    <path
       style="fill:#e6e6e6"
       d="m 177.35845,169.18294 c 0,0 -8.04714,22.54969 -4.33308,41.82747 3.71407,19.27777 -13.26453,-37.40596 -13.26453,-37.40596 z"
       id="path296" />
    <path
       style="fill:#e6e6e6"
       d="m 176.87208,171.15051 -0.90641,2.3213 0.13265,-2.29919 z"
       id="path297" />
    <path
       style="fill:#e6e6e6"
       d="m 177.79724,169.5926 c 0,0 -1.90715,3.97063 -2.68877,6.81572 -0.78162,2.8451 -1.78209,-5.75272 -1.78209,-5.75272 z"
       id="path298" />
    <path
       style="fill:#e6e6e6"
       d="m 170.88772,195.79249 c 0,0 2.81383,41.33204 51.96207,29.57648 49.14823,-11.75556 -3.31407,4.12695 -3.31407,4.12695 l -41.01939,-1.93841 -14.75698,-27.88819 z"
       id="path299" />
    <path
       style="fill:#e6e6e6"
       d="m 171.36731,197.06055 1.70228,9.59467 -5.50478,-6.30065 z"
       id="path300" />
    <path
       style="fill:#e6e6e6"
       d="m 192.7453,228.43115 c 0,0 17.95132,5.5711 49.8746,-24.05301 31.92329,-29.6241 -7.87028,18.83563 -7.87028,18.83563 l -16.35958,6.54383 z"
       id="path301" />
    <path
       style="fill:#e6e6e6"
       d="m 185.18452,223.12534 c 0,0 18.57033,7.03019 31.79064,0.8843 13.22031,-6.1459 -16.22694,9.85996 -16.22694,9.85996 z"
       id="path302" />
    <path
       style="fill:#e6e6e6"
       d="m 239.17113,177.49538 c 0,0 9.28516,12.46865 -1.41489,34.04561 -10.70004,21.57695 16.18272,-26.52905 16.18272,-26.52905 z"
       id="path303" />
    <path
       style="fill:#e6e6e6"
       d="m 208.96118,226.31988 2.77449,-0.77377 c 0,0 -1.55858,1.01695 -1.63596,1.01695 -0.0774,0 -1.13853,-0.24318 -1.13853,-0.24318 z"
       id="path304" />
    <path
       style="fill:#e6e6e6"
       d="m 234.9928,211.20937 2.69712,-3.13927 -0.86219,3.29403 z"
       id="path305" />
    <path
       style="fill:#e6e6e6"
       d="m 241.59302,201.04497 0.81289,-2.92326 -0.0625,2.76694 z"
       id="path306" />
    <path
       style="fill:#e6e6e6"
       d="m 239.52485,178.55654 1.1717,1.39277 1.54752,-1.72438 z"
       id="path307" />
    <path
       style="fill:#e6e6e6"
       d="m 222.23675,185.98467 c 0,0 4.13411,-5.12895 7.75975,-7.36181 3.62563,-2.23286 -7.22917,1.68018 -7.22917,1.68018 z"
       id="path308" />
    <path
       style="fill:#e6e6e6"
       d="m 229.01677,179.42538 -1.08645,0.62529 0.74253,-0.89104 z"
       id="path309" />
    <path
       style="fill:#e6e6e6"
       d="m 224.22544,183.65394 -0.39863,0.52368 -0.40644,-0.41426 z"
       id="path310" />
    <path
       style="fill:#e6e6e6"
       d="m 238.08786,178.09228 c 0,0 1.89019,0.40899 3.21664,2.98452 1.32646,2.57553 0.30951,-3.59248 0.30951,-3.59248 l -3.44878,0.61902 z"
       id="path311" />
    <path
       style="fill:#e6e6e6"
       d="m 223.03262,174.35611 c 0,0 1.50332,-4.90788 11.36328,-8.75459 9.85996,-3.84671 -5.04052,8.00293 -5.04052,8.00293 z"
       id="path312" />
    <path
       style="fill:#e6e6e6"
       d="m 232.22936,166.57425 c 0,0 4.06779,-3.36034 9.6831,-2.60869 5.61532,0.75166 -3.05084,5.17317 -3.05084,5.17317 z"
       id="path313" />
    <path
       style="fill:#e6e6e6"
       d="m 230.17336,167.63542 3.73617,-2.10022 -1.28223,3.2277 z"
       id="path314" />
    <path
       style="fill:#e6e6e6"
       d="m 229.86385,167.79017 3.62564,-2.01179 -1.98968,2.71923 z"
       id="path315" />
    <path
       style="fill:#e6e6e6"
       d="m 229.84175,167.81228 c 0,0 3.80249,-2.36551 4.17832,-2.23287 0.37583,0.13265 0.68533,2.23287 0.68533,2.23287 z"
       id="path316" />
    <path
       style="fill:#e6e6e6"
       d="m 239.48265,164.02747 c 0,0 7.53481,-2.2198 12.34959,3.40786 4.81478,5.62766 -11.16153,1.31312 -11.16153,1.31312 z"
       id="path317" />
    <path
       style="fill:#e6e6e6"
       d="m 236.88767,164.40265 c 0,0 3.9081,-1.18806 5.81525,-0.68783 1.90716,0.50024 -3.62671,2.62625 -3.62671,2.62625 z"
       id="path318" />
    <path
       style="fill:#e6e6e6"
       d="m 248.6745,165.09047 c 0,0 6.28422,2.15727 8.06631,10.00473 1.78209,7.84746 -10.31738,-3.72051 -10.31738,-3.72051 z"
       id="path319" />
    <path
       style="fill:#e6e6e6"
       d="m 254.52101,170.1241 c 0,0 2.06348,1.18807 2.28233,5.15869 0.21885,3.97063 -5.18995,2.06348 -5.18995,2.06348 z"
       id="path320" />
    <path
       style="fill:#e6e6e6"
       d="m 256.72518,175.11084 c 0,0 0.5784,-2.01658 -0.92231,-3.4235 -1.50071,-1.40691 -2.01658,2.36049 -2.01658,2.36049 z"
       id="path321" />
    <path
       style="fill:#e6e6e6"
       d="m 253.03255,168.45339 c 0,0 2.6308,1.85704 3.5151,4.59837 0.8843,2.74134 -5.8806,-2.27707 -5.81428,-2.40972 0.0663,-0.13264 2.29918,-2.18865 2.29918,-2.18865 z"
       id="path322" />
    <path
       style="fill:#e6e6e6"
       d="m 256.86587,190.72759 c 0,0 -1.75083,17.32069 -13.3188,30.51443 -11.56797,13.19374 -25.57459,16.94551 -25.57459,16.94551 z"
       id="path323" />
    <path
       style="fill:#e6e6e6"
       d="m 216.28418,239.48502 c 0,0 2.39176,-0.96921 6.04974,-2.93889 3.65798,-1.96968 -4.56466,-0.37518 -4.56466,-0.37518 z"
       id="path324" />
    <path
       style="fill:#e6e6e6"
       d="m 165.68566,231.87992 c 0,0 -17.50917,-16.97859 -12.73394,-41.03159 4.77523,-24.053 12.73394,41.03159 12.73394,41.03159 z"
       id="path325" />
    <path
       style="fill:#e6e6e6"
       d="m 152.4415,197.79343 c 0,0 -0.75036,-3.62671 0.31265,-6.5656 1.063,-2.93889 -0.31265,6.5656 -0.31265,6.5656 z"
       id="path326" />
    <path
       style="fill:#e6e6e6"
       d="m 155.5162,176.9648 c 0,0 2.56447,-21.57696 19.89679,-39.35142 17.33231,-17.77446 90.02189,-15.20999 90.02189,-15.20999 l -86.92684,34.13404 z"
       id="path327" />
    <path
       style="fill:#e6e6e6"
       d="m 155.1928,177.22121 c 0,0 0.81288,-3.62672 1.063,-3.62672 0.25012,0 0.37518,3.43913 0.37518,3.43913 z"
       id="path328" />
    <path
       style="fill:#e6e6e6"
       d="m 181.47045,133.34662 c 0,0 1.56964,-1.23802 3.27192,-1.74649 1.70228,-0.50848 -0.53058,2.25497 -0.53058,2.25497 z"
       id="path329" />
    <path
       style="fill:#e6e6e6"
       d="m 174.8349,138.0269 c 0.39472,-0.18759 0.52369,0.53541 0.52369,0.53541 l -0.62139,-0.28529 z"
       id="path330" />
    <path
       style="fill:#e6e6e6"
       d="m 174.87789,137.91747 c 0,0 0.40644,-0.41426 0.88323,-0.61357 0.47679,-0.19931 -0.14851,0.76599 -0.14851,0.76599 l -0.78553,0.086 z"
       id="path331" />
    <path
       style="fill:#e6e6e6"
       d="m 225.72615,276.51815 c 0,0 6.25295,-2.93889 9.75461,-3.68924 3.50165,-0.75036 1.50071,4.93983 1.50071,4.93983 z"
       id="path332" />
    <path
       style="fill:#e6e6e6"
       d="m 223.14316,282.72726 2.38762,-0.77376 -1.52542,-0.46426 z"
       id="path333" />
    <path
       style="fill:#e6e6e6"
       d="m 247.66042,364.083 c 0,0 -0.48636,1.94547 -1.4591,3.66985 -0.97273,1.72439 -5.39424,-7.56077 -5.39424,-7.56077 z"
       id="path334" />
    <path
       style="fill:#e6e6e6"
       d="m 238.02153,378.40869 c 0,0 -15.65213,26.88276 -43.06548,32.80758 -27.41335,5.92482 22.2844,-29.71253 22.2844,-29.71253 z"
       id="path335" />
    <path
       style="fill:#e6e6e6"
       d="m 168.82425,416.27172 c 0,0 10.31737,4.4396 36.07955,-8.56655 25.76218,-13.00615 -34.82896,-1.81336 -34.82896,-1.81336 z"
       id="path336" />
    <path
       style="fill:#e6e6e6"
       d="m 175.95262,416.58437 c 0,0 -21.69777,4.18948 -35.57933,-7.25343 -13.88156,-11.44291 23.76124,-0.56277 23.76124,-0.56277 z"
       id="path337" />
    <path
       style="fill:#e6e6e6"
       d="m 171.98632,417.06372 2.12232,-0.0829 -1.72991,-1.22145 z"
       id="path338" />
    <path
       style="fill:#e6e6e6"
       d="m 238.32551,378.5137 -1.64701,1.87361 -0.17133,-1.3375 z"
       id="path339" />
    <path
       style="fill:#e6e6e6"
       d="m 115.28048,385.83682 c 0,0 4.86366,17.42074 28.03236,25.20259 23.1687,7.78186 -20.69266,-28.56294 -21.13481,-28.38608 -0.44215,0.17686 -6.89755,3.18349 -6.89755,3.18349 z"
       id="path341" />
    <path
       style="fill:#e6e6e6"
       d="m 141.20181,410.26107 1.31312,0.64093 -0.32437,-0.8207 z"
       id="path342" />
    <path
       style="fill:#e6e6e6"
       d="m 147.44695,413.22806 c 0,0 -6.85334,-2.74133 -10.67795,-4.9742 -3.8246,-2.23286 7.33971,-3.86882 7.33971,-3.86882 z"
       id="path343" />
    <path
       style="fill:#e6e6e6"
       d="m 118.11024,301.73974 c 0,0 -25.509532,33.24355 -2.49865,84.51779 23.01087,51.27424 110.30215,-2.25106 110.30215,-2.25106 l -67.28182,20.75981 -35.26667,-15.25721 -13.7565,-46.02176 z"
       id="path344" />
    <path
       style="fill:#e6e6e6"
       d="m 151.53684,414.93034 c 0,0 -43.86136,-4.06779 -44.39194,-61.01681 -0.53058,-56.94901 15.91743,38.37869 15.91743,38.37869 z"
       id="path345" />
    <path
       style="fill:#e6e6e6"
       d="m 107.21826,358.887 0.17578,1.32813 0.33594,-0.41797 z"
       id="path346" />
    <path
       style="fill:#e6e6e6"
       d="m 116.18648,304.76303 c 0,0 3.49134,-10.78338 18.78252,-22.62742 15.29119,-11.84404 -15.55634,32.17336 -15.55634,32.17336 z"
       id="path347" />
    <path
       style="fill:#e6e6e6"
       d="m 165.55137,290.00217 c 0,0 -21.92031,-0.44194 -32.88046,12.72793 -10.96016,13.16986 7.15945,-18.38478 7.15945,-18.38478 z"
       id="path348" />
    <path
       style="fill:#e6e6e6"
       d="m 163.07373,290.04325 1.77734,0.1211 -1.02734,-0.71875 z"
       id="path349" />
    <path
       style="fill:#e6e6e6"
       d="m 119.96436,329.93388 c 0,0 -2.375,33.75 13.5,57.75 15.875,24 -20.875,-17.125 -20.875,-17.125 z"
       id="path350" />
    <path
       style="fill:#e6e6e6"
       d="m 134.30811,387.30888 c 0,0 -6.34375,-6 -10.21875,-18.625 -3.875,-12.625 1.125,21.125 1.125,21.125 z"
       id="path351" />
    <path
       style="fill:#e6e6e6"
       d="m 132.40574,387.31774 c 0,0 29.69849,22.89259 71.15263,-3.35875 41.45413,-26.25134 -17.23573,22.36225 -17.23573,22.36225 l -49.67426,-5.83363 z"
       id="path352" />
    <path
       style="fill:#e6e6e6"
       d="m 191.19873,390.74638 c 0,0 4.1875,-2.28125 7.42188,-5.3125 3.23437,-3.03125 -0.15625,3.40625 -0.15625,3.40625 l -7.32813,1.90625 z"
       id="path353" />
    <path
       style="fill:#666666"
       d="m 421.65186,179.65263 c 0,0 -13.9375,8.90625 -29.5,12.09375 -15.5625,3.1875 -28.375,2.1875 -28.375,2.1875 0,0 -8.5625,0.84375 -19.5625,-2.1875 -11,-3.03125 6.26562,-9.63281 6.26562,-9.63281 l 9.57813,2.28906 c 0,0 6.48437,1.4375 10.03125,1.70312 3.54687,0.26563 7.95312,0.95313 14.90625,0.4375 6.95312,-0.51562 11.875,-0.76562 21.1875,-2.85937 9.3125,-2.09375 7.79477,-1.76961 7.79477,-1.76961 0,0 3.0273,-0.85073 3.07149,-0.83969 0.0442,0.011 3.70126,-1.14904 3.70126,-1.14904 z"
       id="path354" />
    <path
       style="fill:#666666"
       d="m 345.49561,192.0745 -6.34375,-1.13281 c 0,0 -3.69598,-0.3985 -6.63489,-1.81272 -2.93892,-1.41421 -9.61224,-2.71794 -9.61224,-2.71794 l 4.83926,-11.09274 1.39212,0.68501 0.97227,0.44194 1.14905,0.50824 1.39212,0.55242 3.15988,1.06066 4.97185,1.39212 2.89402,0.71739 4.15625,0.89843 2.58593,0.50782 0.83594,0.22656 -1.72656,2.24219 z"
       id="path355" />
    <path
       style="fill:#666666"
       d="m 322.91578,186.37788 -0.25411,0.92808 11.84403,2.58536 -2.45277,-3.8007 z"
       id="path356" />
    <path
       style="fill:#666666"
       d="m 288.54376,267.72831 c 0,0 6.18719,-0.53033 15.9541,-10.56241 9.76691,-10.03207 10.12047,-10.38563 10.12047,-10.38563 0,0 5.65685,-5.25911 10.87176,-5.34749 5.21491,-0.0884 3.62392,0.0442 3.62392,0.0442 l -0.11048,-0.006 0.32041,-0.0387 c 0,0 0.3204,0.0497 0.12706,0.12153 -0.19335,0.0718 -0.8176,0.13811 -0.8176,0.13811 0,0 -1.41973,0.3425 -1.4805,0.43642 -0.0608,0.0939 -1.61861,1.01646 -1.61861,1.01646 l -1.00542,0.71816 -1.28716,1.43631 -1.04408,1.27058 -2.65165,3.17093 -4.64039,4.11006 -6.01041,5.39169 -3.73441,2.71794 -4.30893,3.0494 -2.87262,1.72357 -1.37002,0.70711 -1.37002,0.55243 -2.01083,0.57452 -2.276,0.46404 -2.05503,0.26516 -1.29624,0.0781 0.70312,-1.66016 z"
       id="path357" />
    <path
       style="fill:#666666"
       d="m 288.27686,286.05888 5.60937,-1.125 c 0,0 1,-0.25 1.98438,-0.79688 0.98437,-0.54687 1.40625,0.54688 1.40625,0.54688 0,0 0.23437,0.78125 -0.0312,1.96875 -0.26563,1.1875 -0.14063,2.5 -0.40625,3.6875 -0.26563,1.1875 -0.57813,3.29687 -0.57813,3.29687 l -1.25,6.65625 -0.90625,4.85938 -0.71875,4.76562 -0.64062,5.95313 -0.45313,6.20312 -0.0312,2.6875 0.15625,3.32813 0.29688,1.8125 0.25434,0.92391 0.27069,0.61872 0.26517,0.42537 0.28174,0.35355 0.23754,0.27622 c 0,0 -1.11038,-0.32041 -1.49155,-1.25401 -0.38118,-0.93361 -0.96123,-2.32572 -0.94465,-2.49697 0.0166,-0.17126 -0.65739,-1.75672 -1.14353,-3.96643 -0.48613,-2.20971 -1.23743,-7.46882 -1.23743,-7.46882 l -0.28727,-2.12132 c 0,0 -0.28726,-1.28163 -0.0884,-3.86699 0.19888,-2.58536 0.70711,-10.6287 0.70711,-10.6287 l 0.53033,-10.91596 0.35356,-4.15425 z"
       id="path358" />
    <path
       style="fill:#666666"
       d="m 217.83936,188.05888 c 0,0 1.375,1.75 3.4375,0.4375 2.0625,-1.3125 5.75,12.625 5.75,12.625 0,0 -0.6875,1.375 -1.875,-0.5 -1.1875,-1.875 -6.8125,-10.3125 -6.8125,-10.3125 z"
       id="path359" />
    <path
       style="fill:#666666"
       d="m 242.87061,190.18388 c 0,0 -1.09375,-10.625 -3.375,-11.28125 -2.28125,-0.65625 -14.96875,15.0625 -14.96875,15.0625 l 2.40625,7.3125 c 0,0 1.3125,-0.90625 2.5625,-7.5625 1.25,-6.65625 13.375,-3.53125 13.375,-3.53125 z"
       id="path360" />
    <path
       style="fill:#666666"
       d="m 218.40186,188.5745 c 0,0 1.65625,0.84375 2.82812,-0.25 1.17188,-1.09375 2.73438,-4.17187 2.73438,-4.17187 0,0 0.95312,-1.39063 2.5625,-2.70313 1.60937,-1.3125 1.6875,-1.5 1.6875,-1.5 0,0 0.64062,-0.57812 3.35937,-1.40625 2.71875,-0.82812 4,-0.625 4,-0.625 0,0 1.8125,-0.0156 4.03125,1.01563 2.21875,1.03125 -14.28098,15.58678 -14.28098,15.58678 z"
       id="path361" />
    <path
       style="fill:#666666"
       d="m 256.08936,171.80888 c 0,0 4.375,2.75 4.875,17.375 0.5,14.625 -3.125,21.875 -3.125,21.875 l -9.625,17.5 c 0,0 -5.375,7.25 -14.5,11.125 -9.125,3.875 -7.875,3.21875 -7.875,3.21875 0,0 -4.75,2.25 -13.875,4.03125 -9.125,1.78125 -22.5,-3.28125 -22.5,-3.28125 l -5.375,-1.8125 c 0,0 12.21875,3.375 25.15625,0.15625 12.9375,-3.21875 20.5625,-9.21875 20.5625,-9.21875 0,0 10.0625,-6.6875 15.6875,-13.75 5.625,-7.0625 9.6875,-19.71875 9.6875,-19.71875 0,0 2.96875,-10.46875 2.75,-13.9375 -0.21875,-3.46875 -1.84375,-13.5625 -1.84375,-13.5625 z"
       id="path362" />
    <path
       style="fill:#666666"
       d="m 307.41467,167.49592 c 0,0 -8.57366,6.71752 -9.104,9.8995 -0.53033,3.18198 -0.44194,-12.02082 -0.44194,-12.02082 z"
       id="path363" />
    <path
       style="fill:#666666"
       d="m 298.1339,177.5722 c 0,0 -32.52691,-14.05375 -51.00008,-15.9983 -18.47316,-1.94454 -39.24442,4.68459 -39.24442,4.68459 0,0 -16.88218,6.98268 -21.3016,20.41771 -4.41941,13.43502 -1.41421,25.98617 -1.41421,25.98617 0,0 6.0988,12.1092 10.96016,12.99309 4.86135,0.88388 -1.96627,0.044 -3.56002,-0.46377 -1.59375,-0.50781 -10.40534,-3.51371 -16.32736,-13.28062 -5.92202,-9.76691 -3.93328,-18.56155 -3.93328,-18.56155 0,0 1.81196,-17.32412 4.68458,-21.92031 2.87262,-4.5962 10.65079,-15.60055 16.52862,-16.79379 5.87782,-1.19324 25.56307,-6.32654 25.56307,-6.32654 l 19.75,1.5 18.5,3.75 20.125,6.625 18.25,8 z"
       id="path364" />
    <path
       style="fill:#666666"
       d="m 307.33936,167.37138 -20.9375,-8.0625 -20.65625,-6.625 -13.1875,-3.3125 c 0,0 -16.5,-3.71875 -22.71875,-3.09375 -6.21875,0.625 -11.6875,-1.71875 -30.875,5.46875 -19.1875,7.1875 4.81498,6.15941 4.81498,6.15941 l 52.81002,1.02809 41.5,18.125 4.25,-6.875 z"
       id="path365" />
    <path
       style="fill:#666666"
       d="m 192.91748,315.80888 10.26563,-5.6875 c 0,0 0.78125,-24.9375 -11.96875,-31.9375 -12.75,-7 -24,-7.125 -24,-7.125 0,0 -14.53125,-0.1875 -20.3125,3.8125 -5.78125,4 -1.9375,1.75 -1.65625,1.875 0.28125,0.125 0.75,-1.0625 0.75,-1.0625 l 10.25,-0.84375 8,0.0625 c 0,0 10.53125,-0.21875 21.40625,11.21875 10.875,11.4375 8.0625,28.5625 8.0625,28.5625 0,0 -0.0776,0.60841 -0.68526,1.05035 -0.60767,0.44194 -0.11162,0.0747 -0.11162,0.0747 z"
       id="path366" />
    <path
       style="fill:#666666"
       d="m 144.79248,276.85575 c 0,0 2.17188,-1.125 8.8125,-1.8125 6.64063,-0.6875 -7.34375,0.46875 -7.34375,0.46875 l -0.57812,0.29688 z"
       id="path367" />
    <path
       style="fill:#666666"
       d="m 208.93311,368.71513 c 0,0 -9.88255,35.3964 -53.36962,27.26467 -43.48707,-8.13173 -35.70889,-57.45242 -32.52691,-71.41778 3.18198,-13.96536 15.20279,-26.87006 15.20279,-26.87006 0,0 15.73313,-9.54594 26.33973,-7.42462 10.60661,2.12132 -14.84924,2.65165 -14.84924,2.65165 l -11.49049,30.05204 -1.94454,36.23922 20.5061,20.68287 39.06765,0.53033 z"
       id="path368" />
    <path
       style="fill:#666666"
       d="m 213.1927,360.66866 -9.32497,9.36916 -1.72358,1.5026 -1.81196,1.10486 -1.85615,0.97227 -2.07713,1.10485 -1.90035,0.75131 -2.2981,0.7513 -2.91681,0.97227 -3.62392,1.14905 -4.64039,0.79549 c 0,0 -10.03208,0.17678 -10.20886,0.13258 -0.17677,-0.0442 -4.59619,-0.88388 -4.59619,-0.88388 l -4.24265,-0.88388 -5.2591,-2.25391 -1.90035,-1.37001 -1.72357,-1.5468 -2.03294,-2.12132 -0.92807,-1.41421 -2.2981,-3.66812 -1.76777,-2.96101 -2.51907,-4.02167 -2.43068,-5.48008 -1.28163,-4.06586 -0.39774,-1.45841 -0.26517,-7.91076 0.30936,-8.75044 0.92808,-8.97142 1.14905,-5.70105 0.39774,-1.28163 0.83969,-1.94454 1.01647,-1.94455 1.14905,-1.72357 6.54074,-8.08753 3.40295,-3.71231 1.19324,-0.83969 2.69584,-1.72358 4.33103,-2.43068 -12.28598,0.48614 -2.2539,0.30936 -5.56847,5.65685 -11.13693,45.43161 1.41422,18.38478 11.66726,21.56676 10.96015,3.18198 21.56676,2.12132 17.32412,-6.36396 9.54594,-7.07107 6.62913,-10.42983 2.29809,-4.02167 z"
       id="path369" />
    <path
       style="fill:#666666"
       d="m 212.96436,361.30888 -6.8125,13.8125 -6.625,2.375 z"
       id="path370" />
    <path
       style="fill:#000000"
       id="path390"
       d="m 151.27653,272.99676 c -0.12133,0.19414 -0.17536,0.27328 -0.28125,0.46875 -0.0198,0.0365 -0.0987,0.1646 -0.0937,0.23438 0.001,0.0193 0.0429,0.0458 0.0547,0.0547 0.004,0.10164 -0.0881,0.15928 -0.12304,0.2461 -0.0132,0.0328 -0.007,0.0719 -0.0234,0.10351 -0.01,0.0197 -0.14989,0.19962 -0.16993,0.22559 -0.0961,0.12535 -0.0748,0.27909 -0.1145,0.42188 -0.01,0.0347 -0.0285,0.0662 -0.0427,0.0994 0,0 6.5e-4,-7.7e-4 6.5e-4,-7.7e-4 v 0 c 0.0142,-0.0331 0.0331,-0.0646 0.0427,-0.0994 0.0397,-0.14278 0.0184,-0.29653 0.1145,-0.42188 0.02,-0.026 0.15999,-0.20589 0.16992,-0.22558 0.0159,-0.0316 0.0102,-0.0707 0.0234,-0.10352 0.0349,-0.0868 0.12731,-0.14446 0.12305,-0.24609 -0.0118,-0.009 -0.0533,-0.0354 -0.0547,-0.0547 -0.005,-0.0698 0.074,-0.19787 0.0937,-0.23437 0.10588,-0.19548 0.15991,-0.27461 0.28125,-0.46875 z" />
    <circle
       id="path445"
       style="fill:#0000ff;stroke:#ffffff"
       cx="287.94714"
       cy="296.14514"
       r="0.0036988645" />
    <path
       style="fill:#d40055;stroke-width:0.707107"
       d="M 251.73001,480.70682 C 221.98379,478.5356 194.39075,471.00591 167.5843,457.74484 131.90409,440.09395 103.0404,414.72683 81.616427,382.19121 56.207963,343.60451 44.432812,300.51698 46.733943,254.54952 50.939763,170.53395 105.36753,96.359745 185.71984,65.139437 229.34409,48.18955 278.32965,45.275063 323.56365,56.938161 c 30.92373,7.973347 57.59333,21.350285 84.5535,42.410339 7.17508,5.60485 25.64302,23.85883 31.47737,31.1127 34.60252,43.02143 50.82805,92.2813 48.21263,146.3711 -2.12362,43.91852 -18.10036,85.61742 -46.63377,121.71293 -6.92863,8.7649 -24.84802,26.73157 -33.05623,33.14345 -37.26958,29.1133 -77.4478,45.08527 -122.66131,48.76133 -8.33261,0.67748 -26.10819,0.81283 -33.72583,0.25681 z M 181.01933,416.54 c 6.48386,-1.17027 11.93142,-2.98743 21.44107,-7.15214 12.19823,-5.34216 21.36556,-12.25438 29.26496,-22.06595 2.64102,-3.28032 6.46415,-7.87587 8.49583,-10.21233 5.15324,-5.92625 18.06583,-32.44612 30.92208,-63.50773 5.55338,-13.41735 10.27021,-24.90436 10.48185,-25.52668 0.25839,-0.75982 1.6112,-1.27675 4.11833,-1.57369 2.05344,-0.24319 3.84689,-0.32882 3.98544,-0.19027 0.13855,0.13855 -0.11485,6.4369 -0.56311,13.99633 -0.61237,10.32694 -0.61399,15.05105 -0.006,18.99944 1.58964,10.33258 3.86864,14.94956 6.8202,13.81695 0.74926,-0.28753 1.00676,-1.78758 1.01074,-5.88809 0.009,-9.55794 2.50277,-20.50449 7.43384,-32.63489 3.02821,-7.44937 12.63599,-24.67073 18.29903,-32.79989 7.73824,-11.10832 8.90984,-13.28528 8.90984,-16.55563 0,-3.79785 -1.55711,-4.82337 -6.26805,-4.12818 -5.29948,0.78205 -9.28434,3.50138 -17.84155,12.17533 -4.43507,4.49557 -9.94273,9.40371 -12.23925,10.90699 -4.04609,2.64853 -6.44402,3.46799 -5.9597,2.03665 0.12963,-0.38313 7.71335,-18.20246 16.85271,-39.59854 l 16.61701,-38.90195 2.12132,0.41723 c 1.16672,0.22947 4.6669,1.00789 7.77817,1.72983 15.20803,3.52884 20.74287,4.2181 33.83791,4.21384 14.95661,-0.005 23.98152,-1.15507 33.90437,-4.32108 8.27378,-2.63985 28.18031,-12.57858 31.4558,-15.70494 4.06174,-3.87681 5.93685,-8.95678 6.43237,-17.42621 0.23956,-4.09468 0.32968,-8.19288 0.20028,-9.10711 -0.27065,-1.91198 -0.81436,-1.85905 -7.54289,0.73419 -3.97496,1.53199 -5.2018,1.63273 -19.44543,1.5967 l -15.2028,-0.0385 -19.79899,-4.34396 c -10.88944,-2.38918 -28.70853,-6.41244 -39.59798,-8.9406 -23.37352,-5.42652 -37.98011,-8.68355 -67.38777,-15.02638 -19.09202,-4.11788 -22.87667,-4.72407 -31.40928,-5.03085 -21.2116,-0.76264 -35.58133,3.18585 -54.64512,15.01531 -7.37819,4.57833 -11.82845,9.03007 -17.10257,17.10829 -4.67566,7.16158 -7.31669,13.29945 -10.44726,24.2798 -3.23689,11.35329 -4.1638,18.2403 -3.74042,27.79158 0.42136,9.50591 2.2685,15.48737 7.30557,23.65707 7.25634,11.76921 9.19504,13.27976 22.21692,17.31039 20.98059,6.49408 24.43525,6.98977 33.57912,4.81811 7.46051,-1.77187 19.20476,-6.35136 23.69653,-9.2401 5.67277,-3.64827 9.57209,-8.40553 14.77457,-18.02529 6.28942,-11.62959 7.3579,-15.65121 7.32678,-27.57717 -0.0288,-11.04061 -1.36599,-16.13522 -5.56387,-21.198 -6.14463,-7.41062 -13.40795,-8.99229 -22.26371,-4.84818 -2.52659,1.18233 -5.71294,3.13232 -7.08079,4.33329 -2.98341,2.61947 -7.73041,12.31791 -8.2394,16.83365 -0.32755,2.90598 -0.0484,3.60846 3.6329,9.1401 2.19325,3.29571 4.26488,5.99219 4.60363,5.99219 1.12475,0 2.08922,-1.74682 2.93331,-5.31271 1.16507,-4.92191 3.29461,-6.71107 7.97146,-6.69728 5.25373,0.0155 5.73247,0.49295 5.24361,5.22956 -0.51727,5.01181 -3.53305,11.16325 -7.3881,15.0699 -3.40532,3.45088 -13.77546,10.45114 -19.81233,13.3741 -3.1998,1.54929 -5.33936,2.03012 -10.01797,2.25135 -8.17364,0.38651 -10.72256,-0.5038 -14.26203,-4.98157 -4.74897,-6.0079 -5.7714,-8.6358 -6.14781,-15.80142 -0.36202,-6.89188 1.11227,-16.38472 3.16907,-20.40545 3.45762,-6.75907 10.36903,-13.22488 18.16734,-16.99602 5.33836,-2.58154 19.73692,-5.31343 30.47846,-5.78276 10.96629,-0.47916 18.21873,0.77792 33.94113,5.88308 8.76058,2.84462 25.68551,9.14412 26.44496,9.84289 0.15511,0.14271 -0.67996,2.09479 -1.85571,4.33795 -1.17575,2.24316 -10.35606,23.40901 -20.40068,47.03521 l -18.26295,42.95674 h -9.78428 -9.78429 l -8.6297,3.22814 c -4.74633,1.77547 -9.18865,3.73398 -9.8718,4.35223 -3.0751,2.78292 -0.001,5.37875 4.50777,3.80686 3.036,-1.05835 16.13265,-0.94125 22.01271,0.19683 2.62989,0.50901 4.90793,1.05416 5.06231,1.21144 0.51215,0.52182 -12.01822,29.93031 -19.44402,45.63464 -8.64534,18.28349 -13.51455,25.98315 -21.77454,34.43198 -6.71029,6.86371 -10.3839,9.10692 -19.75034,12.06016 -4.68259,1.47643 -7.2862,1.85086 -12.86989,1.85086 -11.08249,0 -17.49111,-1.88431 -22.50454,-6.61696 -3.12784,-2.95266 -9.71918,-13.66724 -11.98407,-19.48076 -1.63857,-4.20585 -1.81288,-5.59437 -1.78357,-14.20736 0.0398,-11.69649 1.19531,-20.4241 3.32346,-25.10229 2.51747,-5.534 11.06804,-15.40623 15.80301,-18.24566 6.57979,-3.94571 8.29242,-3.95488 15.17885,-0.0813 9.47118,5.32753 10.07128,5.92841 12.59276,12.60918 1.23774,3.27943 2.99007,6.65746 3.89407,7.50672 l 1.64363,1.54411 5.76875,-3.08076 5.76874,-3.08076 -0.45988,-5.65686 c -0.93573,-11.50996 -4.36735,-20.84936 -9.1494,-24.90071 -2.87533,-2.43598 -9.65244,-5.47895 -16.4719,-7.39601 -9.49579,-2.66941 -24.1865,-1.75443 -30.30919,1.88777 -1.52641,0.90801 -5.00266,2.91728 -7.72502,4.46504 -5.73502,3.26059 -13.21017,9.88501 -17.61709,15.61214 -3.68311,4.78647 -9.76311,16.5972 -12.13705,23.57687 -4.10529,12.07006 -5.03925,26.66222 -2.78775,43.55565 1.61588,12.12422 3.35652,18.48251 7.19557,26.2843 2.78989,5.66966 4.30761,7.71543 9.72972,13.11489 5.22252,5.20072 7.54849,6.94327 12.43462,9.3157 5.16977,2.51016 15.29173,5.73964 21.2132,6.76823 4.01236,0.69697 18.39575,0.38453 23.33452,-0.50688 z M 288.49956,295.92418 c 0,-0.38891 -0.3182,-0.70711 -0.70711,-0.70711 -0.38891,0 -0.7071,0.3182 -0.7071,0.70711 0,0.38891 0.31819,0.70711 0.7071,0.70711 0.38891,0 0.70711,-0.3182 0.70711,-0.70711 z"
       id="path340" />
    <path
       style="fill:#373e48;stroke-width:0.176777"
       d="m 228.44141,145.02559 c -5.55847,-0.0165 -11.17064,0.0701 -16.59664,1.42078 -5.78618,1.38258 -11.49034,3.2045 -16.93569,5.60713 -3.78477,1.81926 -7.40459,4.10873 -10.20333,7.28376 -3.51726,3.82979 -6.89129,7.89592 -9.3234,12.51345 -2.31007,5.58926 -3.01364,11.67029 -3.90653,17.60623 -0.67862,4.8308 -1.2835,9.83919 0.11582,14.60857 2.6044,10.20238 10.54471,18.9459 20.5446,22.30706 1.24021,0.53071 3.11232,-0.26561 2.80495,-1.80575 -0.67396,-1.73071 -2.40875,-2.76151 -3.41124,-4.29581 -1.96641,-2.62891 -3.92803,-5.35229 -5.13378,-8.42348 -0.81123,-3.48696 -0.87475,-7.07682 -0.88175,-10.63482 0.22689,-6.06626 1.08926,-12.28357 3.88327,-17.7123 3.90775,-7.05524 10.77626,-12.00217 17.86913,-15.51084 4.00644,-1.59631 8.28561,-2.37939 12.48831,-3.28548 6.85385,-1.34382 13.88706,-2.24902 20.8811,-2.08331 4.70903,-0.0751 9.37205,0.49896 13.9664,1.56679 12.36661,2.79273 24.20214,7.01454 36.00488,11.68679 2.47735,0.85973 4.83325,2.30386 7.4808,2.54994 1.03989,0.0665 1.56148,-0.86564 1.88274,-1.68421 2.01272,-3.10647 5.04431,-5.30917 7.60693,-7.91041 1.01547,-0.95635 0.37959,-2.59122 -0.86697,-2.95445 -7.0365,-2.97646 -14.22526,-5.58925 -21.38865,-8.24436 -11.89829,-3.9479 -23.86455,-7.80897 -36.1774,-10.26414 -4.70973,-0.89345 -9.42743,-1.90204 -14.21323,-2.26138 -2.16253,-0.0731 -4.32674,-0.082 -6.49032,-0.0798 z"
       id="path2312" />
    <path
       style="fill:#373e48;stroke-width:0.176777"
       d="m 234.91689,115.1379 c -10.9041,0.11835 -21.9276,1.46709 -32.18853,5.31204 -7.50899,2.57754 -14.19899,6.92325 -20.90948,11.06476 -3.67373,2.01553 -7.13126,4.50364 -9.77476,7.79117 -6.60697,7.60335 -11.67295,16.51251 -14.93867,26.03489 -1.92327,6.03334 -3.46507,12.18692 -4.89836,18.35265 -0.95266,4.82309 -1.44389,9.73523 -1.29055,14.65383 -0.18163,6.09959 1.00083,12.18869 3.29571,17.83424 2.19195,5.81908 5.80197,10.94275 9.27842,16.04664 2.25166,3.02219 5.10147,5.6801 8.61804,7.14531 2.98314,1.47935 6.16011,2.50866 9.42415,3.14922 7.52374,2.00448 15.433,2.45379 23.16005,1.61494 4.90859,-0.61988 9.70706,-2.05456 14.09587,-4.3514 5.77579,-2.82257 11.75966,-5.42887 16.72853,-9.59981 6.00298,-4.57287 11.52006,-10.02148 15.03982,-16.77306 4.14962,-7.63801 6.82203,-16.01686 8.36617,-24.5509 0.47763,-4.6306 -0.4666,-9.259 -0.99981,-13.84544 -0.26779,-1.85775 -0.37452,-3.88705 -1.7644,-5.31446 -3.01482,-3.775 -7.21898,-7.25382 -12.28224,-7.34276 -4.08665,-0.3067 -8.24753,0.52098 -11.80366,2.59186 -4.24039,2.28664 -8.6973,5.04368 -10.6977,9.64896 -1.89513,4.15808 -4.1732,8.29176 -4.80782,12.87559 0.0155,2.48259 3.6233,3.50924 5.20421,1.73669 1.84067,-2.08604 3.13891,-4.63382 5.25945,-6.48929 1.45384,-1.56317 3.3437,-2.62808 5.43269,-3.06763 2.18398,-0.56253 4.86252,-0.8291 6.71484,0.68598 1.36642,2.35106 1.75719,5.13462 2.16015,7.83096 0.37379,3.93116 0.40346,8.06152 -0.98969,11.80886 -1.4177,3.30734 -3.16496,6.53714 -5.49251,9.29528 -3.70172,3.43967 -7.95282,6.24186 -12.18877,8.97618 -4.21122,2.53913 -8.48434,5.1805 -13.2436,6.55427 -4.03099,0.43486 -8.01883,0.33228 -12.0502,-0.0627 -1.33611,-0.14858 -2.90907,-0.77458 -3.98296,0.35444 -2.24257,-0.0796 -4.22559,-1.40096 -6.17082,-2.40412 -7.93144,-4.67765 -13.78148,-13.01766 -15.00151,-22.19116 -0.45831,-6.57763 0.78916,-13.06406 1.97125,-19.50518 0.85696,-4.11594 1.79104,-8.41406 4.33354,-11.90599 2.81367,-4.06003 5.96615,-7.95938 9.65505,-11.29264 5.42743,-4.58612 12.3781,-6.71358 19.04872,-8.77807 5.12837,-1.5458 10.47257,-2.53378 15.80902,-2.59821 6.76828,-0.20683 13.54438,-0.1973 20.24309,1.18117 16.56573,2.8161 32.61005,8.02096 48.35077,13.75832 4.85816,1.87211 9.83624,3.54953 14.54339,5.7804 0.60857,0.1211 0.73682,0.7491 0.19024,1.04167 -2.70938,2.76793 -5.84037,5.21518 -7.87865,8.56055 -0.36737,0.63583 -1.33013,0.15104 -1.80678,0.74751 -2.24611,2.51358 -3.45796,5.76375 -4.84936,8.79468 -12.06752,28.16243 -24.02446,56.37274 -36.04786,84.55618 -6.4669,0.0984 -12.94706,0.0368 -19.40573,0.23513 -5.80908,1.83761 -11.46609,4.13996 -17.06344,6.53763 -1.76847,0.79928 -3.62335,2.54642 -3.37395,4.64488 0.6965,2.29308 3.59487,2.80415 5.65824,2.33262 1.77115,-0.41917 3.47541,-1.15068 5.33323,-1.12082 6.60813,-0.653 13.24156,0.16205 19.79771,1.37528 0.61683,0.2637 2.08704,-0.01 2.10959,0.6018 -3.16487,8.2633 -6.76256,16.35625 -10.12025,24.55117 -2.53409,6.14623 -5.53917,12.08152 -8.27661,18.13591 -0.3912,1.24686 0.90537,2.12788 2.03569,1.90933 10.68269,0.0853 21.36587,-0.007 32.04872,-0.0193 1.69214,-0.28761 1.70966,-2.40266 2.44819,-3.63138 5.0863,-12.27891 10.37246,-24.48124 15.09853,-36.90511 0.38826,-0.56026 0.13485,-1.78785 1.07456,-1.68655 4.30633,-0.56117 8.80134,-0.74728 12.8757,-2.28463 -0.452,5.876 -1.86475,11.68302 -2.8315,17.51474 -1.37207,7.67196 -2.23115,15.46778 -2.1741,23.26775 0.17569,1.302 -0.2331,3.29201 1.34675,3.77394 1.66585,-0.0253 3.41573,0.26732 5.0337,-0.1879 1.16742,-1.10966 0.42178,-2.96248 0.65509,-4.34307 0.08,-7.7489 1.88251,-15.38001 4.40549,-22.72793 1.4795,-4.76363 3.33697,-9.44323 5.43987,-13.91966 4.23646,-7.90738 8.65625,-15.72374 13.34428,-23.3733 2.07082,-3.41314 4.37765,-6.61985 6.9227,-9.6775 2.41629,-3.37894 4.87318,-7.28012 4.59757,-11.60684 0.0838,-2.09053 -1.68424,-4.12211 -3.86423,-3.84731 -3.19539,0.37215 -5.6731,2.77991 -7.56289,5.20634 -3.59425,4.47349 -8.14761,7.98356 -12.38893,11.80522 -3.9982,3.21735 -8.11958,6.36256 -12.66727,8.7053 -2.07738,1.00034 -4.35616,1.42244 -6.6205,1.74705 11.2195,-26.25509 22.475,-52.49522 33.65318,-78.76782 1.5808,-4.05217 3.33616,-8.03424 5.07853,-12.01944 9.27286,4.30881 19.52039,5.58687 29.34249,8.09612 10.71088,2.70079 21.89097,3.42873 32.86659,2.2089 9.45872,-0.88188 18.79065,-2.84942 27.92736,-5.41535 6.09073,-1.81294 12.53403,-4.34169 16.29937,-9.7619 2.52471,-3.71746 4.24959,-8.0635 4.43425,-12.58792 0.20455,-3.97316 0.64138,-7.96476 0.37219,-11.94244 -0.0866,-1.37926 -1.05617,-3.10526 -2.67444,-2.72657 -2.336,0.47405 -4.31301,1.98352 -6.64673,2.51147 -3.96784,1.17874 -8.13256,1.76128 -12.24279,1.67712 -7.42735,0.0219 -14.87677,0.0139 -22.30083,-0.67308 -12.03006,-2.3524 -23.98875,-5.11493 -35.97745,-7.73387 -24.75451,-5.52097 -49.41666,-11.45268 -74.22454,-16.73522 -12.18397,-2.59693 -24.36078,-5.23334 -36.5489,-7.80716 -4.66983,-0.65424 -9.37789,-1.09524 -14.09897,-1.04202 z m 46.46879,154.00703 c 1.60426,0.13178 1.3788,2.93173 -0.23962,2.62472 -0.62277,0.32404 -1.72574,0.24901 -1.94699,-0.66831 -0.38125,-0.84396 0.55421,-2.13328 1.47812,-1.66915 0.19401,-0.16735 0.4501,-0.28444 0.70849,-0.28726 z m -0.59697,0.33387 c 0.0481,0.025 -0.0297,-0.0235 0,0 z m -0.19853,0.0173 c 0.005,-0.002 0.0171,-0.0194 0,0 z m -0.24445,0.31902 c 0.004,-0.002 0.009,-0.0204 0,0 z m 0.89735,0.0894 c 0.01,0.012 -0.007,-0.0139 0,0 z m -1.04754,0.33111 c 0.004,-0.003 9.8e-4,-0.0214 0,0 z m 1.26782,0.25618 c 0.003,0.0147 -1.7e-4,-0.0137 0,0 z m -1.26057,0.27311 c 0.002,-0.005 -0.007,-0.0212 0,0 z m 0.1167,0.33215 c 6.5e-4,-0.006 -0.0143,-0.0215 0,0 z m 1.04858,0.10703 c -0.003,0.0132 0.008,-0.017 0,0 z m -0.8573,0.17609 c -0.002,-0.007 -0.0231,-0.0212 0,0 z m 0.20647,0.18989 c -0.007,-0.0134 -0.0624,-0.039 0,0 z m 0.43642,-0.0135 c -0.0111,0.0156 0.0145,-0.0154 0,0 z m -0.17885,0.15848 c -0.0139,-0.0127 -0.0752,-0.026 0,0 z"
       id="path2314" />
    <path
       style="fill:#373e48;stroke-width:0.176777"
       d="m 258.09742,179.13452 c -1.35195,1.00166 -0.40928,2.8186 -0.48096,4.21398 0.57836,5.40827 -1.09541,10.69897 -2.55394,15.83671 -2.7631,8.64177 -6.64353,17.30027 -13.22199,23.75437 -3.56819,3.50183 -7.46922,6.78204 -11.71869,9.47724 -5.15164,3.00575 -10.51171,5.66904 -15.99693,8.0088 -5.05264,1.98402 -10.34274,2.7191 -15.70757,2.73874 -1.1822,0.0298 -3.16408,-0.19335 -3.23382,1.46025 -0.18606,1.31114 0.74688,2.59576 2.10138,2.68083 5.63055,1.24075 11.56811,1.93586 17.21847,0.40944 7.31353,-1.5263 14.24666,-4.40222 21.02878,-7.46811 5.1138,-2.51608 9.83854,-6.05416 13.29554,-10.6173 3.78337,-6.05734 7.16088,-12.36719 10.37597,-18.74213 1.78262,-3.93274 2.33484,-8.29569 2.80601,-12.55039 0.52976,-6.06655 0.44243,-12.24934 -0.75286,-18.22502 -0.37828,-1.27042 -2.12694,-1.20375 -3.15939,-0.97741 z"
       id="path2316" />
    <path
       style="fill:#373e48;stroke-width:0.176777"
       d="m 235.45343,177.97166 c -3.57063,0.0131 -7.14289,1.42968 -9.54249,4.11627 -2.06935,1.95934 -3.47305,4.50411 -5.49665,6.48964 -0.8352,0.32429 -2.05222,-0.0576 -2.53821,0.97529 -0.82544,1.63348 0.73392,3.13143 1.43865,4.49268 1.76625,2.65253 3.39451,5.42075 5.33254,7.94634 1.28702,1.34527 3.46602,0.44344 4.08899,-1.11866 1.32851,-2.53736 1.49063,-5.47918 2.51493,-8.1117 1.52006,-2.15301 4.46151,-1.84117 6.72925,-1.84684 1.30879,-0.0881 2.60915,0.30697 3.89772,0.12326 1.40264,-0.98285 0.67171,-2.93108 0.55501,-4.35484 -0.52921,-2.51255 -0.80809,-5.33921 -2.56826,-7.34211 -1.15608,-1.1187 -2.86958,-1.36841 -4.41148,-1.36933 z"
       id="path2318" />
    <path
       style="fill:#373e48;stroke-width:0.176777"
       d="m 258.44269,175.26822 c -2.20175,0.17375 -2.05864,4.05816 0.17781,4.04308 1.37567,0.32658 2.4787,-1.22342 1.81783,-2.44139 -0.25151,-0.87372 -1.02286,-1.68448 -1.99564,-1.60169 z"
       id="path2320" />
    <path
       style="fill:#373e48;stroke-width:0.176777"
       d="m 259.84896,176.35236 c -2.18757,-0.0995 -2.4045,3.72863 -0.31247,3.99888 1.37282,0.0382 2.62088,-1.56364 2.33643,-2.88056 -0.25099,-0.86882 -1.20042,-1.19893 -2.02396,-1.11832 z"
       id="path2322" />
    <path
       style="fill:#373e48;stroke-width:0.176777"
       d="m 257.90096,173.19109 c -1.9472,0.12274 -1.63901,3.11714 0.0397,3.40434 1.55552,0.28643 2.20098,-1.7894 1.20256,-2.7763 -0.28272,-0.43726 -0.75941,-0.55093 -1.24227,-0.62804 z"
       id="path2324" />
    <path
       style="fill:#373e48;stroke-width:0.176777"
       d="m 194.38358,243.17395 c -1.40657,-0.16647 -2.48086,1.65627 -1.40627,2.68825 0.95036,1.01043 3.14159,1.18639 3.52863,-0.45886 0.38663,-1.32481 -0.82871,-2.43849 -2.12236,-2.22939 z"
       id="path2326" />
    <path
       style="fill:#373e48;stroke-width:0.176777"
       d="m 159.22919,273.5678 c -6.84691,-0.0463 -13.89913,0.97317 -19.92982,4.401 -3.15504,1.5628 -6.03727,3.60353 -8.61118,6.00264 -6.36843,5.67358 -12.2663,12.20016 -15.72326,20.09103 -4.31494,7.68869 -7.34858,16.08505 -8.89374,24.76757 -1.80055,9.68313 -1.75576,19.64379 -0.32942,29.3724 0.61337,4.44984 0.90457,8.97593 1.89572,13.35443 0.63653,1.57299 2.63878,0.80468 3.94727,0.98585 4.27702,-0.0585 8.57226,0.13147 12.83841,-0.17574 1.34055,-0.38052 1.14323,-1.95683 0.66093,-2.94309 -2.42759,-6.64826 -3.17527,-13.70373 -3.34052,-20.69503 -0.046,-4.36518 -0.88738,-8.78963 0.17679,-13.10132 1.06402,-5.25492 2.15738,-10.51082 3.81102,-15.48633 2.54938,-6.56543 5.95121,-12.76846 10.23543,-18.36924 2.53088,-3.48525 6.59942,-5.3081 10.47126,-6.8905 5.23969,-1.89395 10.73058,-3.93895 16.41537,-3.53657 4.44986,0.3519 8.17163,3.09143 12.00891,5.09445 3.25104,2.02539 7.12294,3.63767 9.1784,7.05377 2.18661,4.09963 2.53517,9.23729 6.10156,12.52663 1.04939,1.17392 3.15327,1.67398 4.18118,0.18196 1.26996,-2.10365 0.79761,-4.7136 0.86041,-7.05518 0.0118,-3.53144 -0.44035,-7.04612 -1.43571,-10.43763 -1.29886,-5.32207 -3.92561,-10.34875 -7.89516,-14.16576 -4.39101,-4.48891 -9.85144,-8.01228 -15.84323,-9.93352 -3.47574,-1.16483 -7.16851,-1.0048 -10.78062,-1.04182 z"
       id="path2328" />
    <path
       style="fill:#373e48;stroke-width:0.176777"
       d="m 165.78822,269.76503 c -4.41269,0.14462 -8.87634,0.42237 -13.16779,1.5102 -1.73074,0.52079 -1.79869,3.84596 0.27553,3.77514 4.80485,0.077 9.68174,-0.17622 14.3524,0.20993 6.40571,1.51212 12.24455,4.94547 16.97095,9.5224 2.51404,2.35028 4.53985,4.99799 5.97737,8.08471 2.86318,5.64901 3.79271,12.1175 3.64345,18.36349 0.14451,1.3564 -0.41248,3.38628 1.14111,4.10557 1.4353,0.3778 2.65315,-0.87248 3.913,-1.35893 1.74043,-1.03626 3.6883,-1.80773 5.26596,-3.06292 0.70425,-1.23775 0.22273,-2.84757 0.28065,-4.24079 -0.4616,-7.99775 -1.77859,-16.28072 -6.05459,-23.20516 -2.11137,-3.47226 -5.38216,-6.09521 -9.07993,-7.72128 -6.87475,-3.29194 -14.34967,-5.55041 -21.98508,-5.97727 -0.51089,-0.0126 -1.02205,-0.0111 -1.53303,-0.005 z"
       id="path2330" />
    <path
       style="fill:#373e48;stroke-width:0.176777"
       d="m 161.0011,290.01735 c -5.93017,0.16594 -11.596,2.28263 -17.03102,4.49232 -4.06995,1.64811 -7.76564,4.33642 -10.17878,8.04882 -4.97129,7.11243 -9.21059,14.92882 -11.06839,23.47053 -0.9883,4.36963 -2.20968,8.72731 -2.60798,13.20027 0.009,5.6305 0.33647,11.26331 0.78834,16.87469 0.4795,4.91457 1.4603,9.7951 3.16151,14.4355 0.0803,0.86893 -0.73536,1.67541 -0.26551,2.57431 3.53401,8.5038 10.11085,15.74203 18.40944,19.79921 7.2156,3.62755 15.31537,5.09605 23.31845,5.55062 5.58623,0.0478 11.24276,-0.25741 16.60635,-1.94867 10.76471,-3.11579 20.01395,-10.89988 25.1219,-20.8499 2.13393,-3.99525 4.01876,-8.1197 6.19623,-12.06578 0.52899,-1.74579 -1.84169,-2.50747 -3.04526,-1.65314 -3.48561,2.65036 -6.13759,6.26543 -9.65304,8.88631 -4.63268,3.06613 -10.13542,4.64907 -15.44439,6.14013 -4.9013,1.38334 -9.92259,0.75461 -14.95388,0.90176 -3.91965,-0.83066 -7.98894,-1.297 -11.59267,-3.17603 -3.03921,-1.28455 -5.39036,-3.76514 -7.36042,-6.33711 -2.32039,-3.75181 -4.78681,-7.42828 -6.85216,-11.32993 -1.66146,-3.3503 -3.09237,-6.92046 -3.92003,-10.58278 0.0838,-7.12986 -0.28864,-14.29696 0.72333,-21.38168 0.67181,-5.50291 1.38035,-11.56539 5.17201,-15.99297 3.01529,-3.69082 5.81236,-7.60852 9.28833,-10.88953 2.21407,-1.9676 5.05266,-3.03061 7.38699,-4.81061 1.14694,-1.03721 0.77739,-3.61159 -1.09174,-3.35712 -0.3692,2.6e-4 -0.73841,5.2e-4 -1.10761,7.8e-4 z"
       id="path2332" />
    <path
       style="fill:#373e48;stroke-width:0.176777"
       d="m 230.75331,328.73939 c -1.27316,0.70173 -1.51057,2.35485 -2.25826,3.50082 -2.369,4.71289 -4.477,9.62434 -6.90367,14.2597 -3.08131,4.80664 -6.53727,9.3781 -9.48248,14.26644 -0.43328,0.73385 -0.1914,1.56159 0.007,2.29741 -1.36882,3.27982 -3.2121,6.35867 -4.76911,9.55765 -2.25844,4.50563 -4.89682,8.95982 -8.59247,12.47723 -5.87013,6.02438 -13.68907,9.9084 -21.95751,11.30859 -4.98865,0.91615 -10.21248,0.70286 -15.29325,0.42502 -7.36321,-0.74752 -14.67301,-2.67836 -21.12554,-6.37824 -3.3058,-1.70371 -5.94872,-4.39049 -8.52426,-7.01915 -3.06863,-3.33065 -5.43117,-7.55928 -7.26822,-11.63032 -1.23528,-0.98888 -2.99912,-0.45226 -4.45705,-0.63633 -3.56921,0.0377 -7.16019,-0.12629 -10.71605,0.16159 -1.51044,0.34783 -1.55624,2.15747 -1.11942,3.34503 2.5601,10.28513 7.44536,20.24437 15.24184,27.57231 6.86203,6.9447 15.90781,11.44508 25.36337,13.63053 5.70101,1.6001 11.56514,2.92263 17.52502,2.71594 6.73848,-0.13869 13.58287,-0.24318 20.10084,-2.16274 7.14685,-1.98818 13.90264,-5.11868 20.69393,-8.05262 12.52854,-5.99906 22.81634,-15.95876 30.67033,-27.29535 2.32527,-2.76527 5.19554,-5.1088 6.88177,-8.36814 2.07726,-3.2756 3.71311,-6.78771 5.31036,-10.31206 4.52614,-9.46287 9.35865,-18.78238 13.67748,-28.34266 0.47767,-1.39875 1.37618,-2.68305 1.52905,-4.16642 -0.53814,-1.75449 -2.66488,-1.00867 -4.02892,-1.16754 -10.06493,-6.3e-4 -20.13656,-0.0614 -30.19744,-0.0376 l -0.17441,0.0289 z m -105.81259,43.7985 c 0.0469,0.23542 -0.017,-0.003 0,0 z"
       id="path2334" />
    <path
       style="fill:#373e48;stroke-width:0.176777"
       d="m 279.68731,269.23781 c -0.90837,0.80964 -0.90398,2.40075 -0.42356,3.40697 0.87318,0.98798 2.42336,0.44702 3.47434,0.0125 1.44979,-0.93014 0.87877,-3.73963 -1.01336,-3.61046 -0.69267,-0.0232 -1.38116,-0.0859 -2.03742,0.19094 z"
       id="path2336" />
    <path
       style="fill:#373e48;stroke-width:0.176777"
       d="m 163.90099,148.29217 c -1.61357,2.14084 -2.73989,4.64493 -3.98541,7.02445 -2.84798,5.60998 -4.83937,11.59843 -6.37929,17.6861 -2.01995,7.64088 -4.02294,15.40855 -3.93417,23.37268 -0.0294,4.83446 0.10396,9.73062 1.49471,14.40004 1.61924,6.52582 4.78623,12.54129 8.57111,18.05802 2.13374,3.38666 4.5152,6.67323 7.67916,9.1784 2.73011,2.18672 6.09359,3.41212 9.34798,4.59244 4.78902,1.43715 9.75107,2.42612 14.69918,2.97788 0.49534,1.72454 2.46122,2.42853 4.05516,2.35231 2.45937,1.13128 5.24577,1.31708 7.89779,1.697 4.71865,0.55966 9.50552,0.0501 14.05766,-1.27574 6.98277,-1.81808 13.71931,-4.53263 20.17054,-7.74557 5.79067,-3.04316 10.96112,-7.49857 14.15494,-13.27018 3.31761,-5.74479 6.64074,-11.51657 9.32221,-17.59135 1.81391,-5.45431 2.52698,-11.24592 2.40895,-16.98299 0.0288,-4.28575 0.0586,-8.64872 -0.935,-12.83047 1.32521,-1.61097 0.50493,-4.41782 -1.61102,-4.80715 0.002,-1.32603 -0.87317,-2.63457 -2.13478,-3.07495 -0.74787,-2.74343 -2.94899,-4.77018 -4.94354,-6.66745 10.3247,2.24202 20.33396,5.6753 30.19738,9.34913 3.37294,1.29574 6.7612,2.61508 10.13187,3.94918 -2.69178,4.50969 -4.41014,9.50988 -6.58516,14.27349 -10.9256,25.48294 -21.75246,51.00803 -32.61748,76.51687 -6.32344,0.15529 -12.6641,0.089 -18.97726,0.3356 -5.94242,2.03421 -11.86626,4.19138 -17.54681,6.88048 -2.20507,0.98947 -4.16985,3.34828 -3.70471,5.87817 0.85544,2.9717 4.50692,4.00586 7.23654,3.25658 2.85695,-0.91961 5.85706,-1.22631 8.84977,-1.19047 4.35882,-0.1173 8.46831,0.2906 12.79931,1.02441 1.15947,0.18229 2.31812,0.36976 3.47625,0.56034 -3.63552,9.27262 -7.53142,18.47239 -11.49361,27.63199 -2.08789,4.79394 -4.50158,9.44871 -6.43196,14.30862 -0.87668,1.71517 -1.85822,3.4376 -2.66641,5.21077 -2.81718,5.72798 -5.20682,11.68128 -8.9898,16.87733 -2.26481,3.34913 -4.6099,6.71446 -6.67609,10.15466 -2.21637,0.84573 -3.70423,2.86611 -5.44727,4.38731 -2.44705,2.29361 -4.69054,4.95185 -7.82099,6.33945 -4.4329,2.39891 -9.31564,3.67472 -14.11866,4.91729 -4.50361,0.71092 -9.08211,0.61597 -13.59826,0.3244 -4.8717,-0.85666 -10.14259,-1.71924 -13.96958,-5.12431 -3.74855,-3.24796 -5.93726,-7.80199 -8.53016,-11.93484 -2.26442,-3.8658 -4.18429,-7.91926 -5.19455,-12.28735 -0.41716,-3.94646 -0.16578,-8.06302 -0.17079,-12.08181 0.12752,-5.7672 0.69651,-11.61127 1.89437,-17.23689 0.64007,-3.05587 2.15465,-6.00794 4.17535,-8.45073 2.89773,-3.70105 5.78202,-7.44953 9.2431,-10.60248 2.2887,-1.79948 5.22658,-2.74355 7.204,-4.92455 0.22973,-0.59256 0.5231,-0.83328 1.11038,-0.48682 4.41466,1.70434 8.42786,4.28299 12.50637,6.64987 2.55388,1.47819 4.90604,3.60431 5.7617,6.52137 1.54327,3.89904 2.52375,8.50672 6.13263,11.10171 1.59293,1.34003 4.22045,1.15811 5.37857,-0.66015 0.33003,-0.59305 1.24746,-0.1561 1.77157,-0.57452 2.62256,-1.25153 5.23107,-2.60347 7.62453,-4.25645 1.51477,-1.21514 0.89019,-3.38394 0.94786,-5.05861 -0.44392,-8.44275 -1.84834,-17.19922 -6.45694,-24.45412 -2.51848,-4.02354 -6.55986,-6.80235 -10.87869,-8.60819 -6.61616,-2.96781 -13.73642,-5.0297 -21.00257,-5.40033 -4.90324,0.008 -9.85892,0.28292 -14.64588,1.39902 -1.45056,0.27351 -2.58853,1.54907 -2.63715,3.03525 -5.93271,0.94389 -11.52932,3.50209 -16.42953,6.92881 -6.29399,4.91033 -12.0621,10.63235 -16.45094,17.33137 -4.93134,8.41251 -9.27654,17.30049 -11.49291,26.8476 -2.70255,11.21478 -2.91113,22.93613 -1.30286,34.3307 0.61663,4.48277 0.92917,9.03239 1.99479,13.43803 0.39069,0.5979 0.43023,1.24228 0.40879,1.93661 0.72861,4.16341 2.26609,8.14007 3.80968,12.05914 0.90175,1.47856 2.88157,0.66841 4.30341,0.87628 39.9124,0 79.8248,0 119.7372,0 1.54475,-0.30545 2.02198,-2.10909 3.02918,-3.13991 2.71213,-3.75772 6.4451,-6.77721 8.64122,-10.95757 3.53208,-6.13928 6.24764,-12.701 9.45985,-19.00668 3.49814,-7.30137 7.26492,-14.489 10.34959,-21.97905 0.25208,-1.40009 1.22276,-2.47275 1.64065,-3.81546 5.29144,-12.85506 10.81723,-25.62053 15.72995,-38.62682 3.61669,-0.59489 7.38746,-0.83346 10.97396,-1.7909 -1.2366,9.26166 -3.48884,18.37218 -4.30029,27.69525 -0.40411,4.61014 -0.67974,9.27182 -0.27587,13.88837 0.17921,1.50267 1.60402,2.48187 3.06527,2.39852 1.6539,-0.0422 3.45286,0.33637 5.0057,-0.35074 1.66527,-1.20475 1.18764,-3.56608 1.36505,-5.33984 0.0705,-7.39808 1.7488,-14.70943 4.045,-21.63275 2.01807,-6.52195 4.64495,-12.90204 8.01773,-18.91202 4.41142,-7.89992 8.75474,-15.84827 13.82517,-23.32934 3.14429,-4.44407 7.12612,-8.59781 8.47941,-14.02267 0.25009,-1.90103 0.55121,-3.96216 -0.1747,-5.7853 -0.91804,-2.0206 -3.22885,-3.35611 -5.43693,-2.74349 -3.68539,0.66214 -6.2962,3.63156 -8.53711,6.39358 -4.25229,4.7213 -9.12302,8.78042 -14.04024,12.78151 -3.6383,2.68625 -7.30104,5.59027 -11.59579,7.2078 -0.67179,0.21867 -1.36537,0.36009 -2.05572,0.50581 8.14223,-19.48525 16.58073,-38.87001 24.82934,-58.32458 4.15434,-9.64766 8.16969,-19.35489 12.33865,-28.99585 9.3383,3.96636 19.46871,5.3692 29.24674,7.84028 9.01235,2.20921 18.34511,2.94372 27.60043,2.3931 11.7175,-0.62899 23.28991,-3.02352 34.52072,-6.35461 5.77221,-1.77635 11.69525,-4.45573 15.25544,-9.56628 3.0121,-4.16528 4.76864,-9.21816 4.90446,-14.36353 0.16778,-3.19906 0.61312,-6.44015 0.34047,-9.62587 -0.4791,-1.61565 -2.51853,-0.90859 -3.77414,-1.06118 -90.83421,0 -181.66844,0 -272.50265,0 -0.25504,0.0759 -0.51008,0.15169 -0.76512,0.22754 z m 66.22912,16.24032 c -3.82485,2.18063 -7.66061,4.872 -9.60499,8.96727 -2.00353,4.10863 -4.11689,8.2644 -5.07316,12.76544 -0.31708,1.36412 -0.0935,2.8846 0.96725,3.8716 -0.18844,2.2433 1.59494,3.95341 2.57698,5.79855 1.67753,2.45108 3.11248,5.12135 5.15009,7.29639 1.81178,1.48152 4.65076,0.37632 5.57952,-1.61896 1.48457,-2.57494 1.70743,-5.63968 2.82946,-8.34027 1.61889,-1.49133 4.07884,-0.90784 6.03009,-1.01854 0.49794,0.16999 1.71901,-0.29813 1.66598,0.41397 -0.0238,3.28678 -0.73238,6.57634 -2.37067,9.44824 -1.60955,3.07655 -3.38344,6.22779 -6.30223,8.2516 -5.41874,4.19186 -11.11247,7.97626 -17.20755,11.05766 -1.81523,0.82809 -3.65858,1.754 -5.5938,2.18556 -4.39636,-0.0229 -8.81632,0.33449 -13.12637,-0.46323 -1.82998,-2.26653 -3.84976,-4.3956 -5.37487,-6.89907 -1.67087,-2.43876 -3.04753,-5.18059 -3.15366,-8.19398 -0.58066,-6.83157 -0.25824,-13.87594 1.95879,-20.41317 1.22122,-3.70194 3.40836,-7.02997 6.26183,-9.67922 4.04918,-4.198 9.07319,-7.46508 14.53477,-9.49997 6.62066,-2.04868 13.52905,-3.17935 20.43173,-4.02931 l -0.15457,0.0858 z"
       id="path2338" />
    <path
       style="fill:#373e48;stroke-width:0.176777"
       d="m 295.31996,330.11666 c -1.25591,-0.16185 -2.78836,0.60073 -2.56119,2.06297 -0.001,2.23647 3.35437,3.26543 4.55442,1.32721 0.79851,-1.05716 1.11652,-3.17877 -0.60698,-3.44784 -0.46225,0.003 -0.92425,0.0409 -1.38625,0.0577 z"
       id="path2340" />
    <path
       style="fill:#373e48;stroke-width:0.176777"
       d="m 294.22305,286.21148 c -1.53084,0.25496 -3.17012,0.35705 -4.59742,0.94978 -1.21725,0.84672 -0.64441,2.56054 -0.90058,3.82104 -0.33497,7.49922 -0.92923,14.98131 -1.26185,22.48316 -0.16004,1.17609 0.2094,2.79431 1.66405,2.83258 1.30189,0.33372 2.52797,-0.74499 2.50181,-2.05641 0.89002,-8.82252 2.94052,-17.54448 4.089,-26.36424 0.10771,-0.85023 -0.63484,-1.70087 -1.49501,-1.66591 z"
       id="path2342" />
    <path
       style="fill:#373e48;stroke-width:0.176777"
       d="m 320.12809,241.93409 c -2.121,0.37842 -3.85363,1.87836 -5.47418,3.20737 -3.86194,3.71583 -7.7112,7.4712 -11.22501,11.52 -1.05132,1.04143 -0.63176,3.28392 1.05307,3.26795 1.90302,-0.001 3.16817,-1.75889 4.61319,-2.75693 4.40611,-3.70491 8.78279,-7.52218 12.48132,-11.94765 1.02279,-1.26902 0.39708,-3.42248 -1.44839,-3.29074 z"
       id="path2344" />
    <path
       style="fill:#373e48;stroke-width:0.176777"
       d="m 302.448,258.19927 c -1.65625,0.0205 -3.33268,2.21397 -1.88861,3.57041 1.67375,1.50843 4.59149,-0.90739 3.37291,-2.82808 -0.31321,-0.495 -0.90242,-0.78145 -1.4843,-0.74233 z"
       id="path2346" />
    <path
       style="fill:#373e48;stroke-width:0.176777"
       d="m 299.25048,260.85058 c -1.57572,0.0164 -3.14237,2.27407 -1.62497,3.42422 1.2065,0.78673 2.87906,-0.32066 3.34578,-1.49901 0.31721,-1.05135 -0.67571,-2.04823 -1.72081,-1.92521 z"
       id="path2348" />
    <path
       style="fill:#241c1f;stroke-width:0.176777"
       d="m 162.41531,148.29217 c -1.77151,2.29493 -2.86752,5.05802 -4.19914,7.62971 -3.66929,7.5013 -5.73687,15.65373 -7.70133,23.73211 -1.19277,5.07445 -2.14731,10.23262 -2.1316,15.46473 -0.24178,5.97403 0.1348,12.03255 1.95325,17.76323 1.78735,6.11021 4.88864,11.72702 8.44817,16.97102 3.22069,5.08751 7.36696,9.96574 13.0958,12.25479 5.91817,2.54753 12.31598,3.87827 18.66444,4.71566 0.97268,1.59195 2.78502,2.26822 4.55097,2.49766 3.38316,1.0814 6.91957,1.59027 10.46607,1.71529 6.72801,0.49002 13.2789,-1.55205 19.55834,-3.71956 6.09111,-2.29029 12.26014,-4.66584 17.64743,-8.38162 4.25041,-3.10353 7.98088,-7.00466 10.48874,-11.66019 3.35177,-5.97506 7.0307,-11.84704 9.34705,-18.32668 2.4739,-7.71135 2.39826,-15.93745 1.97511,-23.9368 -0.0496,-1.66027 -0.48172,-3.30603 -0.59024,-4.94202 1.10016,-2.09313 0.12179,-4.87854 -1.93557,-5.92823 -0.2432,-1.31967 -1.22631,-2.33908 -2.23699,-3.10568 -0.45682,-1.22813 -1.17141,-2.34223 -2.00116,-3.35116 11.75873,2.93855 23.18657,7.23305 34.46834,11.6462 -4.16808,8.72367 -7.78429,17.69892 -11.64793,26.55932 -8.85969,20.73417 -17.67559,41.48699 -26.51477,62.22988 -6.10865,0.31236 -12.22389,0.11877 -18.32677,0.38774 -6.28754,2.23444 -12.66247,4.36017 -18.60064,7.43543 -2.79539,1.42528 -4.79765,5.11583 -3.22438,8.10124 1.52479,2.75624 5.00317,3.74528 7.94425,3.08081 3.24816,-0.82017 6.58201,-1.32313 9.9416,-1.17337 4.45471,-0.003 9.00593,0.51811 13.4316,1.30699 -5.12831,12.91299 -10.64229,25.62376 -16.41358,38.25025 -2.92734,6.27229 -6.01577,12.47183 -9.13114,18.65267 -2.82304,5.10961 -6.42005,9.73652 -9.50437,14.68542 -0.77672,1.04765 -2.13248,1.45694 -2.98898,2.45762 -3.62511,3.11147 -6.56573,7.05634 -11.02955,9.03702 -4.50623,2.14694 -9.32737,3.67535 -14.21113,4.55186 -4.16021,0.50026 -8.41789,0.33821 -12.52773,0.0671 -4.71439,-0.81833 -9.97358,-1.78468 -13.46043,-5.4478 -3.54255,-3.49583 -5.77635,-8.02638 -8.29777,-12.25615 -2.32902,-4.13675 -4.41974,-8.79613 -4.43755,-13.53512 -0.0435,-5.91836 0.0155,-11.97807 0.63408,-17.95212 0.54817,-3.49492 0.81101,-7.12491 2.08236,-10.49373 1.57437,-4.02205 4.70964,-7.12257 7.31909,-10.47644 2.24814,-2.74293 4.68716,-5.44152 7.89764,-7.0728 1.5132,-0.89035 2.96274,-1.90594 4.19051,-3.16851 4.65113,2.02336 9.06799,4.57705 13.32454,7.32622 2.12244,1.30198 3.47711,3.48219 4.22676,5.81188 1.51932,4.01696 2.8652,8.61791 6.69092,11.07685 1.91004,1.37636 4.76669,1.19596 6.32046,-0.64116 0.74501,-0.64174 1.86181,-0.59391 2.67997,-1.16044 2.55075,-1.30663 5.2201,-2.53245 7.41253,-4.4025 1.59844,-1.85044 0.90331,-4.49778 0.90287,-6.71512 -0.57913,-8.85929 -2.24942,-18.11793 -7.60696,-25.43378 -4.01981,-5.38317 -10.52922,-7.95567 -16.64735,-10.14389 -6.87585,-2.42761 -14.23501,-3.50748 -21.51245,-2.87143 -3.39742,0.32937 -6.93548,0.45881 -10.11677,1.80042 -0.96426,0.58458 -1.68241,1.54554 -2.07505,2.59399 -5.45387,1.14443 -10.68278,3.41523 -15.30983,6.51104 -5.56108,4.18108 -10.70391,9.00115 -14.92149,14.55044 -4.07326,5.39354 -7.08166,11.50181 -9.84416,17.64398 -3.7212,8.60162 -5.98879,17.85595 -6.54457,27.21422 -0.28295,6.56298 -0.32177,13.16118 0.59892,19.68027 0.6748,5.69099 1.47628,11.37515 2.70186,16.97471 0.67407,3.98844 2.16466,7.80026 3.62617,11.53647 0.86581,1.33067 2.71191,0.57601 4.03634,0.77472 40.9825,0 81.965,0 122.9475,0 1.52769,-0.30384 2.00582,-2.0641 3.03445,-3.06787 3.09194,-3.83427 6.71858,-7.31076 8.91505,-11.78713 4.16521,-7.8526 7.85039,-15.94942 11.79529,-23.91356 2.56796,-5.46724 5.39111,-10.83363 7.55504,-16.47864 4.94088,-11.32371 9.56432,-22.79385 14.20851,-34.24556 0.921,-2.27281 1.80048,-4.56195 2.69266,-6.84604 0.98588,-0.16209 1.9755,-0.30123 2.96688,-0.42503 -0.3774,8.07519 -1.017,16.16669 -1.29855,24.26053 -0.0375,1.51367 0.97547,3.06134 2.51595,3.34737 -0.10686,3.89398 -0.27428,7.81008 0.0276,11.69592 0.28276,1.48189 1.40911,2.78496 2.8008,3.26795 0.18074,3.19824 5.06407,4.5397 6.79935,1.8161 0.64145,-0.78798 0.79482,-1.85508 1.05305,-2.75834 1.72483,-2.1779 1.10719,-5.14567 1.40994,-7.71331 0.42278,-9.31826 3.29222,-18.26516 6.54822,-26.95694 3.43132,-8.56986 8.29036,-16.50956 12.85629,-24.53755 3.18474,-5.57058 6.87202,-10.82539 10.68495,-15.97822 2.44572,-3.41256 4.5671,-7.34431 4.44876,-11.66726 0.26248,-3.38436 -2.40695,-6.82946 -5.90992,-6.88843 -2.82686,0.0142 -5.39645,1.57958 -7.48609,3.34288 -1.99012,-1.18082 -4.24775,0.21159 -5.93203,1.32064 -3.76398,2.90495 -6.93008,6.4966 -10.30403,9.8288 -1.41336,1.4925 -2.95747,3.00932 -3.99312,4.74734 -1.3115,0.28143 -2.37303,1.36682 -2.80668,2.57466 -1.42342,0.13925 -2.65121,1.40857 -3.06838,2.72346 0.0359,0.73075 0.0166,1.28617 -0.83487,1.42596 -1.14425,0.7422 -0.45767,-0.38306 -0.20212,-1.04029 10.74532,-25.5583 21.76549,-51.01968 32.56748,-76.55747 0.80942,-1.89445 1.61996,-3.78849 2.45309,-5.6727 9.48218,3.69442 19.58858,5.25711 29.42005,7.68005 6.98717,1.63123 14.1625,2.34253 21.33316,2.25999 13.51016,0.008 26.91453,-2.58184 39.82899,-6.41542 6.09093,-1.81101 12.28932,-4.61071 16.13082,-9.89681 3.33993,-4.4276 5.22303,-9.88361 5.40802,-15.42174 0.19988,-3.18313 0.53935,-6.41172 0.26409,-9.58238 -0.4791,-1.61565 -2.51854,-0.90859 -3.77415,-1.06118 -91.74192,0 -183.48384,0 -275.22577,0 -0.25504,0.0759 -0.51007,0.15169 -0.76511,0.22754 z m 62.15358,18.42033 c -3.28568,2.31841 -5.21285,5.94489 -6.80838,9.52983 -1.59356,3.66872 -3.51237,7.41059 -3.66357,11.48347 -0.0544,1.11234 0.43682,2.18389 1.05859,3.02764 0.15475,2.48182 2.00693,4.41147 3.16517,6.49431 1.7341,2.50566 3.18142,5.32826 5.51968,7.33709 2.5387,1.46704 6.04012,0.009 7.16808,-2.61747 1.28296,-2.52129 1.66239,-5.42315 2.77595,-7.98154 1.60617,-0.58671 3.46258,-0.40849 5.08717,-0.2952 -0.13295,3.38692 -1.31314,6.62723 -3.06606,9.50302 -1.38393,2.82723 -3.59409,5.13019 -6.12574,6.96195 -5.90852,4.39084 -12.1358,8.5752 -18.9668,11.46091 -2.48077,1.1391 -5.27757,0.5179 -7.90764,0.66394 -2.12279,-0.0725 -4.28927,0.0532 -6.39573,-0.36045 -2.86633,-3.27602 -5.81568,-6.69512 -7.3314,-10.83827 -1.19154,-3.98963 -0.75217,-8.21117 -0.69949,-12.2982 0.21514,-5.29661 1.37386,-10.60818 4.04064,-15.21337 2.75511,-4.13268 6.5562,-7.50943 10.66253,-10.26098 4.06525,-2.75605 8.82943,-4.256 13.56633,-5.25002 2.62714,-0.58736 5.42417,-1.10457 8.15683,-1.53068 l -0.13944,0.10865 z"
       id="path2350" />
    <path
       style="fill:#241c1f;stroke-width:0.176777"
       d="m 112.19519,385.52648 c -1.43349,1.31176 -0.089,3.18713 0.5775,4.53159 4.07148,7.79712 10.26732,14.40302 17.51622,19.34052 8.24599,5.55033 18.06899,8.02548 27.70819,9.87931 5.44104,1.00193 11.00928,0.53776 16.50017,0.34283 7.28073,-0.27156 14.38999,-2.18956 21.11028,-4.92782 7.29416,-3.00816 14.7845,-5.82761 21.24965,-10.45024 6.65092,-4.5855 12.62491,-10.18538 17.61567,-16.53582 0.76628,-1.08917 -0.34749,-2.51911 -1.59131,-2.27446 -37.40984,-0.22459 -74.82105,-0.0984 -112.23147,-0.13344 -2.67129,0.0675 -5.38185,-0.13483 -8.02867,0.10078 -0.14208,0.0423 -0.28415,0.0845 -0.42623,0.12675 z"
       id="path2655" />
    <path
       style="fill:#241c1f;stroke-width:0.176777"
       d="m 234.38241,113.82969 c -10.86161,0.17148 -21.80516,1.58412 -32.03134,5.38636 -8.76961,3.06162 -16.49161,8.35332 -24.3803,13.12898 -3.76004,2.43713 -6.83775,5.74104 -9.51247,9.3045 -1.28515,1.82004 -2.90686,3.51577 -3.65961,5.64205 -0.35282,1.28696 0.77251,2.47547 2.07851,2.15896 73.9594,0 147.91881,0 221.87822,0 2.01851,-0.1735 1.68477,-3.34773 -0.11291,-3.65983 -6.08939,-1.5412 -12.26565,-2.67885 -18.38631,-4.0992 -32.45937,-7.18523 -64.82846,-14.90074 -97.37005,-21.76386 -8.10964,-1.6734 -16.1746,-3.57929 -24.3211,-5.06498 -4.68599,-0.75604 -9.43713,-1.08814 -14.18264,-1.03298 z"
       id="path2657" />
    <path
       style="fill:#e9afc6;stroke-width:0.176777"
       d="m 329.78175,179.36447 c -1.57383,0.25596 -1.69404,2.1686 -2.35769,3.3242 -0.62478,1.77112 -1.68759,3.44743 -1.95746,5.31265 0.31596,1.73874 2.51495,1.66156 3.84093,2.08274 4.36014,0.96937 8.69968,2.13197 13.14225,2.77696 5.50914,1.0716 11.01843,2.38294 16.66447,2.40955 8.88949,0.21855 17.82451,0.22088 26.63783,-1.11806 3.82408,-0.58934 7.69183,-1.1557 11.38332,-2.33426 1.6697,-0.69009 1.47156,-4.00643 -0.62183,-3.78793 -8.64442,1.0982 -17.25826,1.38577 -25.92612,0.64299 -7.53859,-0.56395 -14.8029,-2.75568 -22.17265,-4.28255 -5.90132,-1.28015 -11.66859,-2.78566 -17.37317,-4.75319 -0.4134,-0.11159 -0.82526,-0.27695 -1.25988,-0.2731 z"
       id="path2659" />
    <path
       style="fill:#e9afc6;stroke-width:0.176777"
       d="m 233.05072,112.62643 c -9.71219,0.0553 -19.4475,1.52819 -28.68953,4.53468 -7.91873,2.53693 -15.18533,6.67036 -22.18682,11.0855 -3.6081,2.29064 -7.46483,4.34097 -10.33829,7.58433 -2.99704,3.23606 -6.03045,6.57792 -8.03659,10.5405 -0.17632,0.85815 -1.3768,0.22954 -1.93626,0.82554 -1.79964,1.60525 -2.54362,4.03977 -3.71446,6.08992 -2.51314,4.90679 -4.62147,10.02019 -6.06674,15.34644 -1.86399,6.85504 -3.82265,13.73534 -4.67547,20.80429 -0.27787,5.38494 -0.40826,10.80322 0.0193,16.18232 1.01821,7.85438 4.15727,15.28489 8.36824,21.94482 3.65562,5.88424 7.80148,12.04697 14.27195,15.09956 6.19634,2.97646 13.00394,4.37612 19.76239,5.37995 1.4379,1.76461 3.69367,2.32367 5.80972,2.79669 3.65357,1.03439 7.43963,1.51417 11.23611,1.39371 3.20018,0.0975 6.41846,-0.0683 9.51489,-0.94444 7.38874,-1.82686 14.51765,-4.63329 21.37028,-7.9226 7.31194,-3.57708 13.5586,-9.41888 17.32204,-16.66431 4.1675,-7.55297 9.01807,-15.09388 10.27429,-23.79987 1.01149,-6.29855 0.68547,-12.71286 0.40275,-19.05674 -0.007,-1.61622 -0.70539,-3.24644 -0.11256,-4.82372 0.28452,-2.15958 -0.70159,-4.32267 -2.34609,-5.69656 -0.67091,-1.22323 -1.55206,-2.31549 -2.50802,-3.31491 0.0308,-0.44547 1.41347,0.32123 1.99746,0.36838 9.352,2.63263 18.58962,6.15788 27.73279,9.62917 -6.32947,13.85532 -12.10794,27.95401 -18.14141,41.93923 -6.38331,14.97344 -12.76198,29.94882 -19.14189,44.92373 -5.89872,0.13699 -11.81273,0.12044 -17.70197,0.3552 -2.89885,1.10898 -5.96652,1.89047 -8.71165,3.35883 -1.26628,0.77492 -0.55478,2.83298 0.89252,2.76628 7.86163,0.29435 15.73664,0.11231 23.60348,0.1678 22.96003,-0.0115 45.92005,-0.0409 68.88007,-0.0608 1.57069,-0.27926 1.88921,-2.1888 2.77268,-3.26878 3.17758,-5.32288 7.00307,-10.21215 10.42561,-15.3703 1.94495,-3.06145 3.33084,-6.60869 3.15003,-10.29045 0.41914,-4.59125 -4.22422,-8.9618 -8.80217,-7.86695 -2.26808,0.42566 -4.21581,1.76587 -6.10777,2.97827 -3.11756,-0.75142 -5.99585,1.3319 -8.19422,3.29842 -4.1015,3.87293 -8.19477,7.78507 -11.89755,12.0449 -0.78864,1.33748 -2.53984,1.60447 -3.26519,3.01936 -0.58839,1.03954 0.5323,-1.33123 0.64716,-1.70236 9.22837,-21.94906 18.65174,-43.82303 27.94233,-65.75003 0.40001,-0.827 0.45559,-1.81231 -0.005,-2.60366 0.5389,-2.27191 1.63905,-4.39069 2.52218,-6.53003 0.14732,-0.61375 0.6644,-0.88629 1.22501,-0.54863 9.77527,3.32449 19.97368,5.29831 30.03529,7.59502 10.12864,2.19989 20.60676,2.24055 30.89617,1.40105 1.77112,-0.13401 3.55112,-0.42688 5.32181,-0.42585 1.08003,1.52112 2.96308,0.56962 4.45751,0.44996 7.59038,-1.43635 15.15945,-3.14959 22.47834,-5.64473 5.82584,-1.97976 11.28005,-5.51199 14.67446,-10.73992 3.05076,-4.47081 4.55745,-9.84117 4.76907,-15.21944 0.16198,-3.19692 0.49642,-6.44003 0.10357,-9.62467 -0.42806,-1.36488 -1.91525,-2.12965 -3.29696,-1.84561 -16.27307,-0.0278 -32.55569,-0.0436 -48.82282,-0.0789 -0.5957,-2.04958 -3.06212,-2.30371 -4.80093,-2.81704 -14.55389,-3.22477 -29.11785,-6.42819 -43.66312,-9.75829 -30.4704,-6.93638 -60.94916,-13.85083 -91.56452,-20.12242 -5.46506,-1.18431 -11.06432,-1.48128 -16.64218,-1.41807 -0.50318,-10e-4 -1.00634,0.005 -1.50951,0.006 z m -12.25801,55.96951 c -3.04724,3.63152 -4.66535,8.18166 -6.47157,12.49916 -0.96847,2.75754 -2.06101,5.85643 -1.0922,8.75892 0.80571,1.29823 0.80214,2.88557 1.66551,4.16678 2.09519,3.58273 4.26437,7.16696 6.92957,10.3593 1.58405,2.02525 4.50585,2.60548 6.80314,1.51641 2.23424,-0.81876 3.5313,-2.94564 4.24715,-5.09874 0.75026,-1.86878 1.16621,-3.8512 1.88721,-5.72849 0.83741,-0.11964 1.99243,-0.30796 2.67651,-0.0939 -0.59233,3.74157 -2.27436,7.28409 -4.5039,10.32187 -3.21664,3.67814 -7.37817,6.24552 -11.39006,8.94821 -3.86183,2.37087 -7.74631,4.82483 -12.01708,6.38947 -3.58421,0.65794 -7.20655,0.24451 -10.8217,0.17056 -0.83809,-0.0519 -1.80391,0.0903 -2.23782,-0.80765 -2.71976,-3.1842 -5.49683,-6.62426 -6.5002,-10.77778 -0.62168,-4.63033 -0.36431,-9.19475 0.0647,-13.78944 0.56767,-5.41431 2.44959,-10.89704 6.38695,-14.79996 4.32283,-4.53936 9.5979,-8.40123 15.72647,-10.04072 2.84908,-0.82459 5.6675,-1.51909 8.64733,-1.99399 z"
       id="path2898" />
    <path
       style="fill:#e9afc6;stroke-width:0.707107"
       d="m 164.18688,266.39281 c -5.07098,0.47131 -11.20423,-0.12161 -15.27738,3.41952 -3.03648,2.69612 -7.96811,2.92851 -11.40735,5.41987 -14.98066,8.22848 -25.08078,23.01222 -30.81604,38.79087 -8.63953,21.48706 -5.88688,45.50393 -0.10081,67.32707 1.11125,4.96949 5.43143,8.03788 7.41733,12.61649 9.5235,15.57257 27.21838,24.14018 44.89201,26.32177 16.68843,2.54925 33.50736,-2.04575 48.32739,-9.59364 11.23157,-5.03246 20.70103,-13.6264 28.46411,-22.87985 5.50531,-3.34768 9.06707,-9.36808 12.55367,-14.67684 14.60621,-26.17068 25.51251,-54.15353 37.20206,-81.67336 1.76042,-1.47428 0.54762,2.89649 0.74421,3.93636 0.11394,6.75192 -1.81383,13.64248 -0.64477,20.30691 4.37062,4.25886 0.66534,10.89153 3.28142,15.88918 2.27985,1.8079 3.20327,5.6531 6.79761,5.08786 5.26452,-0.8324 5.36716,-7.72868 6.12739,-11.83263 0.96125,-17.36942 8.53946,-33.28382 16.9185,-48.35845 1.68541,-1.86825 0.0834,-4.35791 -2.3325,-3.64283 -30.94543,-0.1789 -61.91167,-0.71052 -92.84794,0.0866 -5.11316,0.14581 -11.82167,4.28404 -10.77924,10.08593 1.03927,5.09626 7.04009,5.53744 11.19908,4.6694 6.51443,-1.01284 13.50293,-0.70274 19.72027,0.53447 -8.14559,20.93599 -17.20071,41.63384 -28.32432,61.11501 -6.87787,10.67964 -16.30323,21.08825 -29.41398,23.49612 -9.43703,1.83586 -20.8876,2.57032 -28.78422,-3.92224 -5.84833,-5.8643 -9.3739,-13.79923 -12.51047,-21.22563 0.47071,-11.45001 -1.26637,-23.66761 3.63158,-34.41898 4.4316,-6.97452 10.38136,-13.0354 17.39455,-17.43045 6.43616,3.54281 15.18703,6.17016 17.25507,14.19737 1.66529,4.96347 6.62005,13.12543 12.76935,9.71305 4.13034,-3.23884 11.9032,-4.08799 12.14373,-10.64941 0.267,-10.90371 -2.07802,-22.77895 -9.49898,-31.13756 -8.62376,-7.74244 -20.58102,-11.15034 -31.9814,-11.57196 -0.70667,-0.011 -1.41326,-0.009 -2.11993,0 z"
       id="path2900" />
  </g>
</svg>
